<svg width="228" height="30" viewBox="0 0 228 30" fill="none" xmlns="http://www.w3.org/2000/svg">
<g clip-path="url(#clip0_31_168)">
<path d="M13.4131 0L0 29.8609H13.1624L26.081 0H13.4131Z" fill="#EA580C"/>
<path d="M39.5415 0L26.3792 29.8609H39.5415L52.4602 0H39.5415Z" fill="#EA580C"/>
<path opacity="0.1" d="M26.084 0L39.4941 29.8609H26.3317L13.4131 0H26.084Z" fill="#EA580C"/>
</g>
<path d="M228 27.3172H224.435C224.435 27.3172 219.829 9.37422 210.698 6.41042V27.3172H207.133V2.36523H210.698C221.071 6.41042 224.475 18.7062 224.475 18.7062V2.36523H228V27.3172Z" fill="white"/>
<path d="M204.191 7.49181L203.551 21.4297H201.468L200.667 7.49181V2.36523H204.191V7.49181ZM201.067 23.6325C201.468 23.232 201.989 23.0317 202.589 23.0317C203.15 23.0317 203.671 23.232 204.111 23.6325C204.512 24.0731 204.712 24.5937 204.712 25.1545C204.712 25.7552 204.512 26.2759 204.111 26.6764C203.671 27.117 203.15 27.3172 202.589 27.3172C201.989 27.3172 201.468 27.117 201.067 26.6764C200.627 26.2759 200.427 25.7552 200.427 25.1545C200.427 24.5937 200.627 24.0731 201.067 23.6325Z" fill="white"/>
<path d="M175.942 27.2376V24.1937L194.165 5.32955H175.942V2.28564H198.811V5.32955L180.468 24.1937H198.811V27.2376H175.942Z" fill="white"/>
<path d="M171.056 23.7532C168.974 25.8358 165.65 27.2376 161.364 27.2376H151.672V2.28564H161.244C165.369 2.28564 168.774 3.52724 171.056 5.81016C173.219 7.97294 174.341 11.0569 174.341 14.7817C174.341 18.4664 173.219 21.5904 171.056 23.7532ZM155.236 24.1937H161.004C164.007 24.1937 166.37 23.4328 168.013 21.8708C169.695 20.2687 170.536 17.8656 170.536 14.7817C170.536 11.6577 169.695 9.29463 168.013 7.65253C166.37 6.13057 164.048 5.32955 161.044 5.32955H155.236V24.1937Z" fill="white"/>
<path d="M140.806 24.714C144.651 25.0744 145.813 23.4323 145.412 22.0706C144.611 19.1869 133.877 20.5887 133.317 14.4608C133.036 11.2968 136.24 8.97379 141.487 9.33426C147.014 9.65467 149.137 13.019 149.137 13.019L146.894 14.7011C146.894 14.7011 145.332 12.3782 141.527 12.0578C139.244 11.8575 137.001 12.4983 137.162 14.0603C137.442 17.2244 148.776 15.7825 149.257 22.0706C149.577 26.0757 145.532 27.878 140.966 27.5977C135.159 27.2372 132.996 23.6726 132.996 23.6726L135.399 22.1106C135.399 22.1106 136.761 24.3535 140.806 24.714Z" fill="white"/>
<path d="M120.919 27.1976V16.4638L108.864 2.24561H113.27L122.722 13.3799L132.214 2.24561H136.579L124.484 16.4638V27.1976H120.919Z" fill="white"/>
<path d="M83.5767 2.24561H87.1412V15.9832C87.1412 21.27 90.6658 24.5943 95.0313 24.5943C99.3569 24.5943 102.921 21.3101 102.921 15.9832V2.24561H106.446V15.9832C106.446 22.9922 101.319 27.6782 95.0313 27.6782C88.7433 27.6782 83.5767 22.9121 83.5767 15.9832V2.24561Z" fill="white"/>
<path d="M80.3889 27.3172H76.8243C76.8243 27.3172 72.2184 9.37422 63.0867 6.41042V27.3172H59.5221V2.36523H63.0867C73.46 6.41042 76.8643 18.7062 76.8643 18.7062V2.36523H80.3889V27.3172Z" fill="white"/>
<defs>
<clipPath id="clip0_31_168">
<rect width="52.4602" height="29.9231" fill="white"/>
</clipPath>
</defs>
</svg>
