<svg width="210" height="37" viewBox="0 0 210 37" fill="none" xmlns="http://www.w3.org/2000/svg">
<g clip-path="url(#clip0_30_79)">
<path d="M15.7277 0.00356416L28.3629 0.00289749L32.0809 1.15661e-05C35.2937 -0.00176571 37.9291 0.199398 40.7698 1.90995C44.8251 4.35182 46.3469 10.069 43.792 14.1018C42.2173 16.5881 39.8115 17.9342 37.0007 18.5632C40.2055 20.3921 42.1376 23.6626 43.8467 26.7862C45.556 29.9093 47.8232 33.5013 51.3223 34.7598C51.9263 34.9767 52.5624 35.0931 53.1973 35.2046L53.2 35.9302L43.8123 35.9275C43.5709 35.6999 43.3192 35.4255 43.0966 35.1779C41.9035 33.8038 40.7039 32.2064 39.8245 30.6087C37.0126 25.5005 33.412 19.3146 26.9426 18.7077C26.0694 18.6289 25.1601 18.7121 24.2894 18.6747C21.3486 18.5484 18.3803 18.9979 16.0623 20.9856C12.9429 23.6604 12.3378 29.3329 15.1966 32.4246C16.4735 33.8056 18.1749 34.7932 20.0292 35.1674C20.9419 35.3452 22.0515 35.2804 22.9893 35.2786L26.8744 35.2737C27.7024 35.2734 28.6454 35.2526 29.4612 35.3085C27.8012 33.9604 26.4149 32.3068 25.3778 30.4366C24.5871 29.0225 24.066 27.7774 22.9328 26.5514C21.5914 25.1004 20.2787 24.2247 18.2847 24.1161L18.2841 23.4971L25.3834 23.4937C26.3397 24.4649 27.6186 26.1967 28.3066 27.3707C29.5778 29.5409 30.6991 31.7103 32.5142 33.5113C33.4354 34.4254 34.7365 35.3074 36.0469 35.5148C36.5124 35.5888 37.0833 35.5718 37.561 35.5693C37.5687 35.8277 37.5761 36.0439 37.561 36.3023C36.1858 36.3335 34.7151 36.3068 33.3316 36.3068L25.2893 36.3064L21.0812 36.3061C19.8036 36.3061 18.5928 36.3505 17.3271 36.1446C15.4363 35.8369 13.6352 35.2681 12.0375 34.1896C10.0559 32.8522 8.87587 31.0005 8.43688 28.6597C7.99558 26.3066 8.2481 24.0569 9.63145 22.047C10.8776 20.2369 12.7922 19.0739 14.8294 18.3503C15.2873 18.1878 15.8616 17.9993 16.3344 17.9109C14.5201 16.8534 13.2301 15.3843 11.9922 13.7146C8.60335 9.14376 6.66898 1.8353 0 1.29124C0.00499874 1.04446 0.00899769 0.81641 0.00111079 0.569701C3.14236 0.515495 6.48056 0.55215 9.63257 0.571108C10.8396 1.9112 12.3967 4.04471 13.2778 5.57339C15.9688 10.2421 18.9851 15.8021 24.4966 17.5036C25.2293 17.7295 26.9354 17.8216 27.7852 17.8538C28.9713 17.9024 30.1588 17.8735 31.3411 17.7683C33.6623 17.5639 35.3608 17.2075 37.1552 15.5342C38.1968 14.5393 39.4516 12.8981 39.769 11.4673C40.3221 8.97269 39.723 5.71869 37.9228 3.85015C36.4231 2.24442 33.8478 1.28853 31.6387 1.17997C29.1249 1.05649 26.4663 1.20545 23.9196 1.12514C24.6477 1.66028 25.3201 2.24464 25.8924 2.94822C28.5166 6.17474 30.0791 11.944 34.9446 12.3604L34.952 12.8341C34.1134 12.8787 33.0799 12.8514 32.2316 12.8498C30.7423 12.8433 29.2531 12.8454 27.7642 12.8561C26.6029 11.2654 25.3263 9.85618 24.3593 8.09938C22.8502 5.35786 21.0512 2.21275 17.9283 1.1224C17.1854 0.863063 16.5018 0.84925 15.7255 0.864913L15.7277 0.00356416Z" fill="#FF6900"/>
<path d="M191.673 22.7503C195.955 27.8496 200.514 30.9736 203 32.2599H196.14C187.16 27.2524 182.556 15.3539 182.556 15.3539V32.2599H178.504V3.63916H192.041C197.198 3.63916 201.435 7.63596 201.435 12.0921C201.435 15.0323 199.685 17.5131 197.291 18.9832L191.673 22.7503ZM183.431 7.13062C184.859 12.1381 187.023 16.3187 189.463 19.8102C191.626 18.34 194.758 16.2727 194.897 16.1808C196.323 15.2162 197.337 13.7001 197.337 12.0921C197.337 9.51951 194.758 7.13062 192.041 7.13062H183.431Z" fill="white"/>
<path d="M159.439 3.96094H163.537V32.2142H159.439V3.96094Z" fill="white"/>
<path d="M151.603 11.9082H155.747V32.1678H151.603V21.28C151.603 21.28 149.024 33.592 141.611 32.4894C138.25 32.0299 136.776 28.6305 136.776 22.796C136.776 11.9082 136.776 11.9082 136.776 11.9082H140.874V22.5204C140.874 22.5204 140.69 28.4467 142.946 28.6763C148.057 29.2276 151.603 11.9082 151.603 11.9082Z" fill="white"/>
<path d="M124.285 29.2282C128.705 29.6417 130.04 27.7582 129.58 26.1962C128.659 22.8885 116.319 24.4964 115.674 17.4676C115.352 13.8383 119.036 11.1738 125.068 11.5872C131.422 11.9548 133.862 15.8137 133.862 15.8137L131.284 17.7433C131.284 17.7433 129.488 15.0787 125.114 14.7112C122.489 14.4814 119.911 15.2166 120.095 17.0081C120.417 20.6375 133.448 18.9837 134 26.1962C134.369 30.7902 129.718 32.8576 124.469 32.5359C117.793 32.1225 115.306 28.0338 115.306 28.0338L118.069 26.2421C118.069 26.2421 119.634 28.8148 124.285 29.2282Z" fill="white"/>
<path d="M109.947 8.92203C111.375 8.92203 112.526 7.81947 112.526 6.44126C112.526 5.01712 111.375 3.91455 109.947 3.91455C108.52 3.91455 107.369 5.01712 107.369 6.44126C107.369 7.81947 108.52 8.92203 109.947 8.92203ZM107.967 11.9541H112.111V32.2137H107.967V11.9541Z" fill="white"/>
<path d="M92.9564 29.0899C96.2716 28.8143 98.1595 24.6797 100.6 24.1284C106.217 22.7961 104.283 32.2139 104.283 32.2139H100.37C100.37 32.2139 101.521 28.4928 100.139 28.2172C98.758 27.9414 97.4228 31.7085 92.9103 32.5814C90.5621 33.0408 85.2669 31.9843 85.359 26.701C85.4511 22.2449 89.549 21.0045 93.3708 20.4072C96.2716 19.9478 98.9883 19.5803 99.6328 17.6049C100.093 16.2726 99.1264 14.2513 94.7521 14.6188C92.0815 14.8484 90.0556 15.7673 88.5822 18.2021L85.9576 16.3186C87.477 13.7 90.6081 11.6786 94.7521 11.4949C97.9292 11.3111 103.408 12.0461 103.777 16.6861C104.468 24.9093 90.6542 21.0045 89.8254 26.2416C89.6872 27.2983 90.1937 29.2737 92.9564 29.0899Z" fill="white"/>
<path d="M73.3688 22.7503C77.651 27.8496 82.2094 30.9736 84.6958 32.2599H77.8351C68.8563 27.2524 64.2518 15.3539 64.2518 15.3539V32.2599H60.2V3.63916H73.7371C78.8941 3.63916 83.1303 7.63596 83.1303 12.0921C83.1303 15.0323 81.3806 17.5131 78.9861 18.9832L73.3688 22.7503ZM65.1267 7.13062C66.5541 12.1381 68.7182 16.3187 71.1586 19.8102C73.3227 18.34 76.4537 16.2727 76.5919 16.1808C78.0193 15.2162 79.0322 13.7001 79.0322 12.0921C79.0322 9.51951 76.4537 7.13062 73.7371 7.13062H65.1267Z" fill="white"/>
</g>
<defs>
<clipPath id="clip0_30_79">
<rect width="210" height="36.3174" fill="white"/>
</clipPath>
</defs>
</svg>
