<svg width="106" height="32" viewBox="0 0 106 32" fill="none" xmlns="http://www.w3.org/2000/svg">
<path d="M18.4335 0.0590671C18.3805 0.111169 18.3629 1.51792 18.3629 6.02762C18.3629 9.98157 18.3453 11.9614 18.3041 12.0367C18.2159 12.193 17.9866 12.1756 17.6984 11.9846C17.5632 11.8978 17.4103 11.7993 17.3574 11.7704C17.3045 11.7357 17.0928 11.5851 16.887 11.4346C16.6812 11.2783 16.3225 11.0352 16.0931 10.8847C15.8638 10.7341 15.4522 10.4621 15.1817 10.2826C14.4643 9.80789 13.5646 9.21162 12.9707 8.82954C12.6885 8.64429 12.071 8.23326 11.6006 7.91486C11.1302 7.60225 10.3775 7.09281 9.92475 6.78599C9.47197 6.47917 8.99567 6.16077 8.86631 6.06814C8.73694 5.98131 8.04895 5.52397 7.33744 5.06084C6.62593 4.59192 5.80858 4.04775 5.51457 3.85092C4.8207 3.37622 3.85634 2.72205 2.69205 1.94631C1.68653 1.26899 1.38076 1.06637 0.78097 0.661132C0.375233 0.383256 0.104742 0.325365 0.0518197 0.493249C0.0400592 0.55114 0.0165382 5.03768 0.0047777 10.4678C-0.00698279 18.6594 -0.00110255 20.3846 0.0694604 20.5988C0.110622 20.7435 0.169425 21.004 0.192946 21.1777C0.257628 21.6176 0.669245 22.4513 1.16907 23.1749C1.72181 23.9622 2.64501 24.6743 6.2496 27.0767C6.84938 27.4762 7.50797 27.9104 7.71378 28.0493C7.92547 28.1825 8.10776 28.3156 8.1254 28.3446C8.14304 28.3677 8.32532 28.4893 8.53113 28.6166C8.73106 28.744 9.11328 28.9987 9.37789 29.1782C9.63662 29.3634 9.87183 29.514 9.89535 29.514C9.91887 29.514 10.1129 29.6355 10.3305 29.786C10.5422 29.9423 10.8185 30.1276 10.942 30.2029C11.0714 30.2781 11.2478 30.4055 11.3419 30.4923C11.5595 30.6833 11.9652 30.9554 12.2945 31.1349C12.6355 31.3259 12.7355 31.2565 12.7943 30.8107C12.8178 30.6255 12.8472 27.9335 12.8649 24.8306C12.8884 19.0299 12.8884 19.0994 13.1001 19.0936C13.1706 19.0936 13.6999 19.412 14.0115 19.6436C14.4467 19.9677 14.97 20.3209 15.4639 20.6277C15.7462 20.8072 16.099 21.0387 16.246 21.1487C16.393 21.2529 16.5341 21.3455 16.5635 21.3455C16.5929 21.3513 16.7106 21.4208 16.8282 21.5076C16.9458 21.6003 17.1045 21.7103 17.1869 21.7566C17.2692 21.8029 17.4221 21.8955 17.5279 21.9592C17.7455 22.0866 18.7745 22.7581 20.2034 23.7133C20.715 24.0548 21.2736 24.4253 21.4442 24.5353C21.744 24.7264 22.1321 24.9811 23.6257 25.9595C23.9844 26.1968 24.4078 26.4805 24.5666 26.5905C24.7312 26.7062 24.9664 26.8683 25.0958 26.9494C25.2251 27.0304 25.625 27.2852 25.9778 27.5167C26.3365 27.7425 26.8128 28.0493 27.0363 28.194C28.3182 29.0045 29.2943 29.6645 30.1116 30.2781C30.7173 30.7239 30.8761 30.7933 30.9937 30.6544C31.076 30.556 31.1407 27.783 31.1524 24.0722C31.1524 22.3992 31.1818 18.8562 31.2054 16.1933C31.2524 11.863 31.2465 11.3131 31.1642 10.9541C31.1113 10.7341 31.0584 10.41 31.0407 10.2247C31.0054 9.89473 30.7291 9.18267 30.435 8.68481C29.8117 7.61962 29.0238 6.92493 26.6011 5.31556C26.1954 5.04347 25.5956 4.63824 25.2722 4.41825C24.9488 4.19827 24.3431 3.78724 23.9197 3.50936C21.2971 1.76106 20.7914 1.4195 20.6856 1.33267C20.6209 1.28056 20.3151 1.07216 20.0094 0.86954C19.7036 0.666921 19.3861 0.441147 19.3037 0.371678C18.9333 0.0416998 18.5805 -0.0856602 18.4335 0.0590671ZM21.3089 4.11143C21.5794 4.31405 22.6672 5.04347 23.7139 5.73816C24.7665 6.42706 25.725 7.06386 25.8485 7.15649C25.9719 7.24333 26.3777 7.5212 26.7599 7.77592C27.1362 8.03064 27.5067 8.29115 27.5772 8.35483C27.6478 8.41851 27.8125 8.55745 27.9477 8.66744C28.324 8.98005 28.7063 9.61106 28.9297 10.2826L29.1238 10.8789L29.112 15.0702C29.1002 18.2773 29.0767 19.2788 29.0238 19.3309C28.9297 19.4236 28.7709 19.3541 28.2417 19.001C26.9481 18.1442 25.4604 17.1542 24.3725 16.4306C23.6845 15.9675 22.9789 15.4986 22.8025 15.3886C22.4026 15.1339 21.5794 14.5781 21.2736 14.3523C21.1443 14.2539 20.9384 14.1266 20.8208 14.0571C20.6974 13.9934 20.5739 13.8892 20.5386 13.8313C20.4504 13.6576 20.4563 3.9146 20.5504 3.82197C20.6738 3.7004 20.7973 3.74672 21.3089 4.11143ZM3.14483 12.3204C3.57409 12.6098 4.09743 12.9629 4.30912 13.1135C4.52081 13.2582 5.02063 13.6055 5.42636 13.8776C5.8321 14.1497 6.3084 14.4681 6.48481 14.5897C6.66122 14.7113 7.19044 15.0586 7.66086 15.3654C8.13128 15.6722 8.57817 15.9675 8.6605 16.0196C9.38965 16.5174 10.2776 17.1079 10.4011 17.1716C10.4834 17.2179 10.5951 17.3279 10.6539 17.4205C10.748 17.5769 10.7539 17.901 10.748 22.376C10.7421 26.081 10.7245 27.1983 10.6715 27.3025C10.5833 27.4472 10.3599 27.4762 10.2482 27.343C10.207 27.2967 10.1541 27.2562 10.1247 27.2562C10.0776 27.2562 9.078 26.5847 9.01331 26.5036C8.99567 26.4863 8.77222 26.3357 8.51349 26.1736C8.25476 26.0058 8.01955 25.8495 7.98427 25.8263C7.95487 25.7974 7.3198 25.3748 6.57301 24.8885C5.2676 24.0259 4.70897 23.6496 4.36792 23.4065C4.27972 23.3428 4.13271 23.2386 4.03863 23.1807C3.27419 22.6712 2.66265 21.936 2.33335 21.1198L2.10991 20.5698V16.2801C2.10403 12.7256 2.11579 11.973 2.18635 11.8978C2.22751 11.8399 2.28631 11.7993 2.31571 11.7993C2.33923 11.7993 2.71557 12.0367 3.14483 12.3204Z" fill="#1A4FFF"/>
<path d="M46.0106 30.7636C44.9532 30.7636 43.9059 30.6416 42.8688 30.3976C41.8521 30.1535 40.876 29.7977 39.9405 29.33C39.0051 28.8419 38.1815 28.2014 37.4698 27.4083C36.7581 26.6152 36.3717 25.6696 36.3107 24.5715V23.2904V13.56C36.3107 12.9906 36.5141 12.5229 36.9208 12.1569C37.3478 11.7705 37.846 11.5773 38.4154 11.5773C39.6355 11.679 40.2964 12.3399 40.3981 13.56V23.6259C40.4388 24.2563 40.6726 24.785 41.0996 25.2121C41.547 25.6188 42.0351 25.9442 42.5638 26.1882C43.1128 26.4322 43.6721 26.6152 44.2414 26.7372C44.8312 26.8592 45.4209 26.9202 46.0106 26.9202C46.6003 26.9202 47.1799 26.8592 47.7493 26.7372C48.339 26.6152 48.8982 26.4322 49.4269 26.1882C49.976 25.9442 50.464 25.6188 50.8911 25.2121C51.3384 24.785 51.5825 24.2563 51.6231 23.6259V13.56C51.6231 12.9906 51.8265 12.5229 52.2332 12.1569C52.6602 11.7705 53.1584 11.5773 53.7278 11.5773C54.9479 11.679 55.619 12.3399 55.741 13.56V23.2904V24.5715C55.68 25.6696 55.2835 26.6152 54.5514 27.4083C53.8397 28.2014 53.0161 28.8419 52.0807 29.33C51.1453 29.7977 50.159 30.1535 49.1219 30.3976C48.1051 30.6416 47.068 30.7636 46.0106 30.7636ZM61.8416 11.5773C62.411 11.5773 62.899 11.7705 63.3057 12.1569C63.7124 12.5229 63.9259 12.9906 63.9463 13.56V14.1396C63.9259 14.9733 63.9768 15.746 64.0988 16.4578C64.2411 17.1492 64.5665 17.7694 65.0749 18.3184C65.5833 18.8675 66.2238 19.1624 66.9966 19.203H75.5679V13.621C75.5679 13.0516 75.7712 12.5839 76.1779 12.2179C76.605 11.8315 77.1032 11.6383 77.6726 11.6383C78.8927 11.74 79.5637 12.4009 79.6858 13.621V20.6977C79.6858 22.3245 79.4621 23.8598 79.0147 25.3036C78.608 26.5847 77.9369 27.6727 77.0015 28.5674C76.0864 29.4418 74.9171 29.9197 73.4937 30.001H62.5126C61.9636 29.9807 61.4959 29.7875 61.1095 29.4215C60.7435 29.0351 60.5503 28.5674 60.53 28.0184C60.53 27.449 60.713 26.9609 61.079 26.5542C61.4654 26.1475 61.9433 25.934 62.5126 25.9137H72.4566C73.2293 25.873 73.8699 25.5781 74.3783 25.0291C74.846 24.5207 75.1612 23.9411 75.3238 23.2904H65.9595C64.536 23.2091 63.3566 22.7312 62.4211 21.8568C61.5061 20.962 60.8452 19.8741 60.4385 18.593C60.0521 17.3119 59.8487 15.9494 59.8284 14.5056V13.56C59.8487 13.0109 60.0521 12.5534 60.4385 12.1874C60.8248 11.801 61.2925 11.5977 61.8416 11.5773ZM103.051 17.9829C103.051 18.4913 102.848 18.9183 102.441 19.264C102.055 19.5894 101.577 19.7521 101.007 19.7521H88.1045C87.8402 19.7521 87.6267 19.8029 87.464 19.9046C87.3013 20.0063 87.1793 20.1181 87.0979 20.2401C87.0166 20.3418 86.9759 20.4333 86.9759 20.5146C86.9759 20.6163 87.0166 20.7282 87.0979 20.8502C87.1793 20.9519 87.3013 21.0535 87.464 21.1552C87.6267 21.2366 87.8402 21.2874 88.1045 21.3077H98.079C99.3601 21.3281 100.418 21.5822 101.251 22.0703C102.085 22.538 102.675 23.0972 103.02 23.748C103.386 24.3783 103.569 25.0189 103.569 25.6696C103.569 26.3 103.386 26.9406 103.02 27.5913C102.654 28.2217 102.055 28.7809 101.221 29.269C100.407 29.7367 99.3601 29.9705 98.079 29.9705C97.8553 29.9909 97.6926 30.001 97.5909 30.001H85.7558C85.1864 30.001 84.6984 29.8384 84.2917 29.513C83.9053 29.1673 83.7121 28.7504 83.7121 28.2624C83.7121 27.754 83.9155 27.327 84.3222 26.9813C84.7086 26.6559 85.1864 26.4932 85.7558 26.4932H98.323C98.628 26.5135 98.872 26.4729 99.0551 26.3712C99.2584 26.2695 99.4109 26.1577 99.5126 26.0357C99.6143 25.9137 99.6651 25.7916 99.6651 25.6696C99.6651 25.6086 99.6143 25.5069 99.5126 25.3646C99.4109 25.2019 99.2584 25.0799 99.0551 24.9986C98.872 24.8969 98.628 24.8359 98.323 24.8156H88.3181C87.1386 24.7952 86.1625 24.5512 85.3898 24.0835C84.617 23.5954 84.068 23.0362 83.7426 22.4058C83.4173 21.7754 83.2546 21.145 83.2546 20.5146C83.2546 19.8843 83.4173 19.264 83.7426 18.654C84.0883 18.0236 84.6374 17.4847 85.3898 17.0373C86.1625 16.5696 87.1386 16.3154 88.3181 16.2748C88.5214 16.2544 88.6739 16.2443 88.7756 16.2443H101.007C101.577 16.2443 102.055 16.4171 102.441 16.7628C102.848 17.0882 103.051 17.4949 103.051 17.9829Z" fill="white"/>
<path d="M87.647 10H85.0811V2.4279H87.6988C88.4506 2.4279 89.0964 2.57949 89.6362 2.88267C90.1785 3.18338 90.595 3.61597 90.8859 4.18043C91.1767 4.74488 91.3222 5.42026 91.3222 6.20655C91.3222 6.99531 91.1755 7.67316 90.8822 8.24008C90.5913 8.807 90.1711 9.24205 89.6214 9.54523C89.0742 9.84841 88.4161 10 87.647 10ZM86.4528 8.81316H87.5805C88.108 8.81316 88.5479 8.71703 88.9004 8.52477C89.2529 8.33005 89.5179 8.04042 89.6953 7.6559C89.8728 7.26892 89.9615 6.7858 89.9615 6.20655C89.9615 5.62731 89.8728 5.14666 89.6953 4.7646C89.5179 4.38008 89.2554 4.09292 88.9078 3.90313C88.5627 3.71087 88.1338 3.61474 87.6211 3.61474H86.4528V8.81316ZM95.0805 10.1109C94.5111 10.1109 94.0193 9.99261 93.6052 9.75598C93.1936 9.51688 92.8769 9.1792 92.655 8.74291C92.4332 8.30416 92.3223 7.78777 92.3223 7.19374C92.3223 6.60956 92.4332 6.09687 92.655 5.65565C92.8793 5.21198 93.1924 4.86689 93.5942 4.62041C93.9959 4.37145 94.468 4.24698 95.0102 4.24698C95.3602 4.24698 95.6905 4.30367 96.0011 4.41705C96.3141 4.52797 96.5902 4.70051 96.8293 4.93468C97.0709 5.16884 97.2607 5.46709 97.3987 5.82943C97.5367 6.1893 97.6057 6.61819 97.6057 7.11609V7.5265H92.9508V6.62435H96.3228C96.3203 6.368 96.2648 6.14 96.1564 5.94035C96.0479 5.73823 95.8964 5.57924 95.7016 5.46339C95.5094 5.34754 95.2851 5.28962 95.0287 5.28962C94.7551 5.28962 94.5148 5.35617 94.3077 5.48928C94.1007 5.61991 93.9392 5.79245 93.8234 6.0069C93.71 6.21888 93.6521 6.45181 93.6496 6.70569V7.49322C93.6496 7.82351 93.71 8.10697 93.8308 8.3436C93.9516 8.57777 94.1204 8.7577 94.3373 8.88341C94.5542 9.00665 94.8081 9.06828 95.099 9.06828C95.2937 9.06828 95.4699 9.04116 95.6277 8.98694C95.7854 8.93024 95.9222 8.84767 96.0381 8.73922C96.1539 8.63076 96.2414 8.49643 96.3006 8.33621L97.5503 8.47671C97.4714 8.807 97.321 9.09539 97.0992 9.34188C96.8798 9.5859 96.5988 9.7757 96.2562 9.91126C95.9136 10.0444 95.5217 10.1109 95.0805 10.1109ZM103.648 4.32092L101.626 10H100.147L98.1243 4.32092H99.5515L100.857 8.53956H100.916L102.225 4.32092H103.648Z" fill="#97AFFF"/>
</svg>
