<svg width="73" height="39" viewBox="0 0 73 39" fill="none" xmlns="http://www.w3.org/2000/svg">
<path d="M31.6151 0C32.0201 0.054945 33.5019 0.0264563 33.9706 0.0266593L38.8628 0.0267274L50.9035 0.0269979C53.2273 0.0272009 55.6906 -0.0150895 58.0001 0.0618471C57.2354 1.12008 56.3585 2.71788 55.6777 3.8789L51.9985 10.1522C48.7058 15.7596 45.1937 21.4907 41.9971 27.1182C38.6366 27.1369 35.2761 27.1355 31.9157 27.114C31.1875 25.9071 30.4764 24.6901 29.7826 23.4631C30.2514 22.4801 31.12 21.153 31.7039 20.1804C32.7329 18.4626 33.7465 16.7356 34.7447 14.9998C35.4845 16.0634 36.284 17.4724 36.9533 18.6074C38.7308 15.7518 40.4785 12.566 42.2304 9.64704C42.4393 9.25789 42.6257 8.94622 42.8608 8.57243C42.3242 8.62853 41.2579 8.59239 40.6893 8.58962L36.7383 8.58062C36.2748 9.17453 35.4589 10.661 35.041 11.3767L31.9347 16.7003L28.793 22C26.117 26.7079 23.3945 31.3894 20.6259 36.0435L10.6504 36.0495C11.0626 35.1 11.9537 33.6683 12.4978 32.7396L15.6579 27.3492C19.931 20.1815 24.1423 12.977 28.2912 5.73668C29.2219 4.07466 30.8275 1.60207 31.6151 0Z" fill="#F59700"/>
<path d="M15.9407 0.0475823C17.1362 -0.0148737 18.6148 0.020853 19.8295 0.021462C21.9205 0.016387 24.0114 0.0234916 26.1023 0.0427089C26.5604 0.979548 27.3974 2.19382 27.9322 3.21253C27.5815 4.04828 26.5762 5.66611 26.0805 6.50694C25.0513 8.28013 23.9995 10.0401 22.9254 11.7865C22.4113 10.8437 21.5972 9.50462 21.0084 8.60736C20.0496 10.1589 19.0613 11.9456 18.1275 13.5327L11.8552 24.1311C11.2693 25.1497 10.6704 26.1606 10.0585 27.1638C8.93979 27.0587 6.48344 27.1185 5.29509 27.1249C3.84196 27.1328 1.3785 27.0509 0 27.176L11.5048 7.66166L14.5127 2.55577C14.9145 1.86936 15.6352 0.712945 15.9407 0.0475823Z" fill="#F59700"/>
<path d="M62.6624 32.1211V36.2433C62.6624 38.532 60.968 38.8355 59.9059 38.8228C58.2494 38.7975 57.3643 37.4951 57.3643 37.4951L58.085 36.8882C58.085 36.8882 58.7172 37.8492 59.9059 37.8618C60.5002 37.8618 61.537 37.5963 61.537 36.2433V36.2306V33.2338C61.537 33.2338 60.8289 36.6353 58.7805 36.3318C57.8574 36.1927 57.4654 35.257 57.4654 33.6511V30.6543H58.5908V33.5752C58.5908 33.5752 58.5276 35.2064 59.1598 35.2696C60.5634 35.4214 61.537 30.6543 61.537 30.6543H62.6624V32.1211Z" fill="black"/>
<path d="M55.4727 32.6648V32.551C55.4727 31.8935 55.321 31.6911 55.1439 31.6659C54.0186 31.5521 53.007 36.2812 53.007 36.2812H51.8816V30.7049H53.007V33.6005C53.007 33.6005 53.6898 30.5025 55.3589 30.6163C56.2946 30.6796 56.6107 31.7164 56.6107 32.5004V32.6648H55.4727Z" fill="black"/>
<path d="M49.519 31.7668V34.5992C49.519 34.9153 49.6076 35.1176 49.7593 35.2441C49.911 35.3326 50.126 35.3832 50.4295 35.3832C50.5686 35.3832 50.6697 35.3832 50.7709 35.3579L51.1249 35.2947V36.2809L50.872 36.3189C50.7456 36.3315 50.5938 36.3442 50.4295 36.3442C49.8605 36.3442 49.3673 36.2051 49.0133 35.9395C48.6086 35.6361 48.4063 35.1935 48.4063 34.5992V31.5518C47.597 31.4254 46.8004 31.615 46.8004 31.615V30.6667C48.7351 29.8195 48.5833 27.8975 48.5833 27.8975L49.5 28.2432C49.5 29.672 48.9753 30.2241 48.3178 30.6667C48.3178 30.6667 49.8731 30.5782 50.6065 31.261V32.3611C50.0501 31.8426 49.519 31.7668 49.519 31.7668Z" fill="black"/>
<path d="M40.7003 33.12C40.8647 31.6785 42.1292 30.6164 43.6592 30.5531C45.5812 30.4773 46.4537 31.413 46.2261 32.4246C45.91 33.7776 42.42 34.8144 42.42 34.8144C42.7741 35.1685 43.2419 35.3835 43.7604 35.3835C44.9869 35.3835 45.5306 34.3213 45.5306 34.3213L46.2893 34.8144C46.2893 34.8144 45.4295 36.3445 43.6592 36.3445C42.6223 36.3445 41.7119 35.826 41.1682 35.042C41.105 34.9409 40.9406 34.6501 40.8647 34.473C40.8647 34.473 45.0248 33.3729 45.0375 32.1085C45.0375 31.6532 44.3799 31.4762 43.7604 31.5015C42.8373 31.5394 42.0407 32.197 41.8889 33.12H40.7003Z" fill="black"/>
<path d="M36.9916 36.3567C35.3478 36.3567 34.0074 35.0543 34.0074 33.4611C34.0074 31.8552 35.3478 30.5654 36.9916 30.5654C38.6228 30.5654 39.9505 31.8552 39.9505 33.4611C39.9505 35.0543 38.6228 36.3567 36.9916 36.3567ZM36.9916 31.5138C35.9674 31.5138 35.1328 32.3863 35.1328 33.4611C35.1328 34.5232 35.9674 35.3957 36.9916 35.3957C38.0158 35.3957 38.8378 34.5232 38.8378 33.4611C38.8378 32.3863 38.0158 31.5138 36.9916 31.5138Z" fill="black"/>
<path d="M28.6311 35.244V36.2556H27.5057V28.3779H30.9198C32.5763 28.3779 33.6132 29.4274 33.4994 30.6413C33.2844 32.791 29.1496 33.3094 28.6311 35.244ZM28.6311 33.5623C29.8703 32.2219 32.1464 31.8426 32.374 30.6413C32.5257 29.7689 31.6659 29.3389 30.9198 29.3389H28.6311V33.5623Z" fill="black"/>
<path d="M70.404 27.5397C71.4433 27.6371 71.7572 27.1932 71.649 26.8251C71.4325 26.0457 68.5311 26.4246 68.3796 24.7682C68.3038 23.913 69.1699 23.2851 70.588 23.3825C72.082 23.4691 72.6558 24.3785 72.6558 24.3785L72.0495 24.8332C72.0495 24.8332 71.6273 24.2053 70.5989 24.1187C69.9818 24.0646 69.3756 24.2378 69.4189 24.66C69.4946 25.5152 72.5583 25.1255 72.6883 26.8251C72.7749 27.9077 71.6815 28.3949 70.4473 28.3191C68.8776 28.2217 68.293 27.2582 68.293 27.2582L68.9425 26.836C68.9425 26.836 69.3106 27.4422 70.404 27.5397Z" fill="black"/>
<path d="M65.0286 28.2108V25.3095L61.77 21.4663H62.9609L65.5158 24.4759L68.0815 21.4663H69.2615L65.9921 25.3095V28.2108H65.0286Z" fill="black"/>
<path d="M54.9349 21.4663H55.8984V25.1796C55.8984 26.6086 56.8511 27.5071 58.0311 27.5071C59.2003 27.5071 60.1638 26.6194 60.1638 25.1796V21.4663H61.1165V25.1796C61.1165 27.0741 59.7308 28.3407 58.0311 28.3407C56.3315 28.3407 54.9349 27.0524 54.9349 25.1796V21.4663Z" fill="black"/>
<path d="M54.0732 28.243H53.1097C53.1097 28.243 51.8648 23.3931 49.3965 22.5919L49.5 28.7432L49 29.2432L48.5 28.7432L48.433 21.4985H49.3965C52.2004 22.5919 53.1206 25.9155 53.1206 25.9155V21.4985H54.0732V28.243Z" fill="black"/>
</svg>
