<svg width="299" height="38" viewBox="0 0 299 38" fill="none" xmlns="http://www.w3.org/2000/svg">
<g clip-path="url(#clip0_32_2)">
<path d="M0 31.2463L4.36129 23.6714H11.5941C16.3398 23.6714 20.3524 27.1845 20.9796 31.8886L21.7777 37.8743H12.3092L10.9443 34.6895C10.049 32.6006 7.99507 31.2463 5.72245 31.2463H0Z" fill="#005B01"/>
<path d="M43.5552 31.2463L39.1939 23.6714H31.9611C27.2154 23.6714 23.2028 27.1845 22.5756 31.8886L21.7775 37.8743H31.246L32.6109 34.6895C33.5062 32.6006 35.5601 31.2463 37.8328 31.2463H43.5552Z" fill="#005B01"/>
<path d="M1.89392 23.6715L15.5228 0H19.3104L18.9347 9.01792C18.6105 16.7978 12.4414 23.0651 4.66756 23.512L1.89392 23.6715Z" fill="#5BB85C"/>
<path d="M39.1939 23.6715L25.565 0H21.7775L22.1532 9.01792C22.4774 16.7978 28.6464 23.0651 36.4202 23.512L39.1939 23.6715Z" fill="#5BB85C"/>
</g>
<path d="M277.749 33.3706H271.205L281.175 4.49023H289.044L299 33.3706H292.457L285.222 11.0899H284.997L277.749 33.3706ZM277.34 22.0187H292.795V26.7851H277.34V22.0187Z" fill="#5BB85C"/>
<path d="M248.674 9.52456V4.49023H272.393V9.52456H263.552V33.3706H257.516V9.52456H248.674Z" fill="#5BB85C"/>
<path d="M239.42 12.796C239.307 11.6585 238.823 10.7748 237.967 10.1449C237.112 9.51499 235.951 9.20005 234.484 9.20005C233.488 9.20005 232.646 9.34107 231.96 9.62311C231.274 9.89574 230.747 10.2765 230.381 10.7653C230.023 11.2542 229.845 11.8089 229.845 12.4294C229.826 12.9464 229.934 13.3977 230.169 13.7831C230.414 14.1686 230.747 14.5023 231.17 14.7844C231.593 15.057 232.082 15.2967 232.637 15.5035C233.192 15.701 233.784 15.8702 234.414 16.0112L237.009 16.6317C238.268 16.9137 239.425 17.2898 240.478 17.7598C241.53 18.2299 242.442 18.8081 243.213 19.4943C243.984 20.1806 244.581 20.9891 245.004 21.9198C245.437 22.8506 245.658 23.9176 245.667 25.1209C245.658 26.8884 245.206 28.4208 244.313 29.7181C243.43 31.0061 242.151 32.0073 240.478 32.7218C238.814 33.4269 236.806 33.7794 234.456 33.7794C232.125 33.7794 230.094 33.4222 228.364 32.7077C226.644 31.9932 225.299 30.9356 224.331 29.5348C223.372 28.1246 222.869 26.3807 222.822 24.303H228.731C228.797 25.2714 229.074 26.0799 229.563 26.7285C230.061 27.3678 230.724 27.852 231.551 28.181C232.388 28.5007 233.333 28.6605 234.386 28.6605C235.42 28.6605 236.318 28.5101 237.079 28.2092C237.85 27.9084 238.447 27.49 238.87 26.9542C239.293 26.4183 239.505 25.8025 239.505 25.1068C239.505 24.4582 239.312 23.9129 238.926 23.471C238.55 23.0292 237.996 22.6531 237.262 22.3429C236.538 22.0327 235.65 21.7506 234.597 21.4968L231.452 20.7071C229.018 20.1148 227.095 19.1888 225.685 17.929C224.275 16.6693 223.574 14.9724 223.584 12.8383C223.574 11.0897 224.04 9.562 224.98 8.25524C225.929 6.94847 227.231 5.92845 228.886 5.19515C230.541 4.46186 232.421 4.09521 234.527 4.09521C236.67 4.09521 238.541 4.46186 240.139 5.19515C241.747 5.92845 242.997 6.94847 243.89 8.25524C244.783 9.562 245.244 11.0756 245.272 12.796H239.42Z" fill="#5BB85C"/>
<path d="M193.286 4.49023H200.125L206.711 16.928H206.993L213.579 4.49023H220.418L209.884 23.161V33.3706H203.82V23.161L193.286 4.49023Z" fill="#5BB85C"/>
<path d="M190.6 14.601H184.423C184.31 13.8019 184.08 13.0921 183.732 12.4717C183.384 11.8418 182.938 11.3059 182.392 10.8641C181.847 10.4222 181.217 10.0838 180.503 9.84874C179.798 9.61371 179.032 9.49619 178.204 9.49619C176.709 9.49619 175.407 9.86754 174.298 10.6102C173.189 11.3435 172.328 12.4153 171.717 13.8254C171.106 15.2262 170.801 16.9278 170.801 18.9303C170.801 20.9891 171.106 22.7189 171.717 24.1197C172.338 25.5205 173.203 26.5781 174.312 27.2926C175.421 28.0071 176.705 28.3644 178.162 28.3644C178.98 28.3644 179.737 28.2562 180.432 28.04C181.137 27.8238 181.763 27.5088 182.308 27.0952C182.853 26.6721 183.304 26.1598 183.662 25.5581C184.028 24.9564 184.282 24.2701 184.423 23.4992L190.6 23.5274C190.44 24.853 190.04 26.1316 189.401 27.3631C188.771 28.5853 187.92 29.6805 186.849 30.6488C185.786 31.6078 184.517 32.3693 183.041 32.9333C181.575 33.488 179.915 33.7653 178.063 33.7653C175.487 33.7653 173.184 33.1825 171.153 32.0167C169.132 30.851 167.534 29.1635 166.359 26.9542C165.193 24.7449 164.61 22.0703 164.61 18.9303C164.61 15.7809 165.202 13.1015 166.387 10.8923C167.571 8.68299 169.179 7.00018 171.21 5.84384C173.24 4.67809 175.525 4.09521 178.063 4.09521C179.737 4.09521 181.288 4.33024 182.717 4.8003C184.155 5.27036 185.429 5.95665 186.538 6.85916C187.648 7.75227 188.55 8.84751 189.246 10.1449C189.951 11.4422 190.402 12.9276 190.6 14.601Z" fill="#5BB85C"/>
<path d="M160.073 4.49023V33.3706H154.799L142.234 15.1935H142.023V33.3706H135.917V4.49023H141.275L153.741 22.6533H153.995V4.49023H160.073Z" fill="#5BB85C"/>
<path d="M111.602 33.3706V4.49023H131.062V9.52456H117.708V16.4062H130.061V21.4406H117.708V28.3363H131.118V33.3706H111.602Z" fill="#5BB85C"/>
<path d="M100.542 13.8254C100.345 13.1391 100.068 12.5328 99.7103 12.0063C99.353 11.4704 98.9159 11.0192 98.3988 10.6525C97.8911 10.2765 97.3083 9.98975 96.6502 9.79233C96.0015 9.5949 95.2823 9.49619 94.4926 9.49619C93.0166 9.49619 91.7193 9.86284 90.6005 10.5961C89.4912 11.3294 88.6263 12.3965 88.0058 13.7972C87.3853 15.1886 87.0751 16.8902 87.0751 18.9021C87.0751 20.9139 87.3806 22.6249 87.9917 24.0351C88.6028 25.4453 89.4677 26.5217 90.5864 27.2644C91.7052 27.9977 93.026 28.3644 94.549 28.3644C95.931 28.3644 97.1108 28.1199 98.0886 27.6311C99.0757 27.1328 99.8278 26.4324 100.345 25.5299C100.871 24.6274 101.135 23.5604 101.135 22.3288L102.375 22.5121H94.9298V17.9149H107.015V21.5532C107.015 24.0915 106.479 26.2726 105.407 28.0964C104.336 29.9108 102.86 31.3116 100.979 32.2987C99.0992 33.2765 96.9463 33.7653 94.5208 33.7653C91.8133 33.7653 89.4348 33.1684 87.3853 31.9744C85.3359 30.7711 83.7377 29.0647 82.5907 26.8555C81.4532 24.6368 80.8844 22.0045 80.8844 18.9585C80.8844 16.6176 81.2228 14.5305 81.8997 12.6973C82.586 10.8547 83.5449 9.29407 84.7765 8.01551C86.008 6.73695 87.4417 5.76392 89.0775 5.09644C90.7133 4.42896 92.4855 4.09521 94.3939 4.09521C96.0297 4.09521 97.5527 4.33495 98.9629 4.81441C100.373 5.28446 101.623 5.95195 102.714 6.81686C103.814 7.68176 104.712 8.71119 105.407 9.90514C106.103 11.0897 106.55 12.3965 106.747 13.8254H100.542Z" fill="#5BB85C"/>
<path d="M58.022 33.3706H51.4788L61.4487 4.49023H69.3175L79.2733 33.3706H72.7301L65.4959 11.0899H65.2703L58.022 33.3706ZM57.613 22.0187H73.0686V26.7851H57.613V22.0187Z" fill="#5BB85C"/>
<defs>
<clipPath id="clip0_32_2">
<rect width="43.5555" height="37.8743" fill="white"/>
</clipPath>
</defs>
</svg>
