<svg width="193" height="36" viewBox="0 0 193 36" fill="none" xmlns="http://www.w3.org/2000/svg">
<path d="M32.4718 0.0342315C32.4718 2.58596 31.4524 5.03317 29.6378 6.83751C27.8232 8.64185 25.362 9.65552 22.7958 9.65552C20.2296 9.65552 17.7685 8.64185 15.9539 6.83751C14.1393 5.03317 13.1199 2.58596 13.1199 0.0342333L22.7958 0.0342315H32.4718Z" fill="white"/>
<path d="M22.8504 33.9272C22.8504 31.3755 21.831 28.9283 20.0164 27.1239C18.2018 25.3196 15.7407 24.3059 13.1745 24.3059C10.6083 24.3059 8.14715 25.3196 6.33256 27.1239C4.51796 28.9283 3.49854 31.3755 3.49854 33.9272L13.1745 33.9272H22.8504Z" fill="white"/>
<path d="M18.0082 16.7933C15.7984 18.0692 13.1693 18.4099 10.6994 17.7406C8.22951 17.0713 6.12109 15.4468 4.83798 13.2243C3.55487 11.0019 3.20217 8.36371 3.85748 5.89006C4.51279 3.4164 6.12242 1.30995 8.33228 0.0340847L13.1703 8.41371L18.0082 16.7933Z" fill="white"/>
<path d="M18.0401 16.7621C20.25 15.4862 22.879 15.1455 25.3489 15.8148C27.8188 16.4841 29.9273 18.1087 31.2104 20.3311C32.4935 22.5535 32.8462 25.1917 32.1909 27.6654C31.5356 30.139 29.9259 32.2455 27.7161 33.5213L22.8781 25.1417L18.0401 16.7621Z" fill="white"/>
<path d="M186.162 17.6184H178.312L177.053 21.3339H171.69L179.301 0.299561H185.233L192.844 21.3339H187.421L186.162 17.6184ZM184.844 13.6632L182.237 5.96264L179.66 13.6632H184.844Z" fill="white"/>
<path d="M170.497 0.299561V4.40455H164.923V21.3339H159.8V4.40455H154.227V0.299561H170.497Z" fill="white"/>
<path d="M144.542 21.5437C143.003 21.5437 141.625 21.294 140.407 20.7946C139.188 20.2952 138.209 19.5561 137.47 18.5773C136.751 17.5985 136.371 16.4199 136.332 15.0416H141.785C141.865 15.8207 142.134 16.4199 142.594 16.8394C143.053 17.2389 143.653 17.4387 144.392 17.4387C145.151 17.4387 145.75 17.2689 146.189 16.9293C146.629 16.5698 146.849 16.0804 146.849 15.4611C146.849 14.9417 146.669 14.5123 146.309 14.1727C145.97 13.8331 145.54 13.5534 145.021 13.3337C144.522 13.114 143.802 12.8643 142.864 12.5846C141.505 12.1651 140.397 11.7457 139.538 11.3262C138.679 10.9067 137.94 10.2874 137.32 9.46843C136.701 8.64943 136.391 7.58074 136.391 6.26235C136.391 4.30474 137.101 2.77661 138.519 1.67795C139.937 0.559317 141.785 0 144.062 0C146.379 0 148.247 0.559317 149.665 1.67795C151.084 2.77661 151.843 4.31473 151.942 6.29231H146.399C146.359 5.61314 146.11 5.08379 145.65 4.70425C145.191 4.30474 144.601 4.10498 143.882 4.10498C143.263 4.10498 142.764 4.27478 142.384 4.61436C142.005 4.93397 141.815 5.4034 141.815 6.02264C141.815 6.70181 142.134 7.23116 142.774 7.6107C143.413 7.99024 144.412 8.39974 145.77 8.8392C147.128 9.29864 148.227 9.7381 149.066 10.1576C149.925 10.5771 150.664 11.1863 151.283 11.9854C151.903 12.7844 152.212 13.8131 152.212 15.0716C152.212 16.2701 151.903 17.3588 151.283 18.3376C150.684 19.3164 149.805 20.0954 148.646 20.6747C147.488 21.254 146.12 21.5437 144.542 21.5437Z" fill="white"/>
<path d="M134.866 0.299561L127.585 14.3824V21.3339H122.462V14.3824L115.18 0.299561H120.993L125.068 9.1088L129.113 0.299561H134.866Z" fill="white"/>
<path d="M114.257 0.299561V4.40455H108.684V21.3339H103.56V4.40455H97.9868V0.299561H114.257Z" fill="white"/>
<path d="M96.4323 0.299561V4.40455H87.8628V8.83913H94.2749V12.8243H87.8628V21.3339H82.739V0.299561H96.4323Z" fill="white"/>
<path d="M69.1317 21.5437C67.1541 21.5437 65.3364 21.0842 63.6784 20.1654C62.0404 19.2465 60.732 17.968 59.7532 16.33C58.7944 14.6721 58.3149 12.8143 58.3149 10.7569C58.3149 8.69937 58.7944 6.85163 59.7532 5.21363C60.732 3.57563 62.0404 2.29719 63.6784 1.37832C65.3364 0.459439 67.1541 0 69.1317 0C71.1093 0 72.9171 0.459439 74.5551 1.37832C76.2131 2.29719 77.5115 3.57563 78.4503 5.21363C79.4092 6.85163 79.8886 8.69937 79.8886 10.7569C79.8886 12.8143 79.4092 14.6721 78.4503 16.33C77.4915 17.968 76.1931 19.2465 74.5551 20.1654C72.9171 21.0842 71.1093 21.5437 69.1317 21.5437ZM69.1317 16.8694C70.8097 16.8694 72.148 16.3101 73.1468 15.1914C74.1656 14.0728 74.675 12.5946 74.675 10.7569C74.675 8.89913 74.1656 7.42093 73.1468 6.32227C72.148 5.20364 70.8097 4.64433 69.1317 4.64433C67.4338 4.64433 66.0755 5.19365 65.0567 6.29231C64.0579 7.39097 63.5585 8.87915 63.5585 10.7569C63.5585 12.6146 64.0579 14.1028 65.0567 15.2214C66.0755 16.3201 67.4338 16.8694 69.1317 16.8694Z" fill="white"/>
<path d="M48.3601 21.5437C46.822 21.5437 45.4437 21.294 44.2252 20.7946C43.0067 20.2952 42.0279 19.5561 41.2888 18.5773C40.5696 17.5985 40.1901 16.4199 40.1501 15.0416H45.6035C45.6834 15.8207 45.9531 16.4199 46.4125 16.8394C46.8719 17.2389 47.4712 17.4387 48.2103 17.4387C48.9694 17.4387 49.5686 17.2689 50.0081 16.9293C50.4476 16.5698 50.6673 16.0804 50.6673 15.4611C50.6673 14.9417 50.4875 14.5123 50.128 14.1727C49.7884 13.8331 49.3589 13.5534 48.8395 13.3337C48.3401 13.114 47.621 12.8643 46.6822 12.5846C45.3238 12.1651 44.2152 11.7457 43.3562 11.3262C42.4973 10.9067 41.7582 10.2874 41.1389 9.46843C40.5197 8.64943 40.2101 7.58074 40.2101 6.26235C40.2101 4.30474 40.9192 2.77661 42.3375 1.67795C43.7557 0.559317 45.6035 0 47.8807 0C50.1979 0 52.0656 0.559317 53.4839 1.67795C54.9021 2.77661 55.6612 4.31473 55.7611 6.29231H50.2178C50.1779 5.61314 49.9282 5.08379 49.4688 4.70425C49.0093 4.30474 48.42 4.10498 47.7009 4.10498C47.0817 4.10498 46.5823 4.27478 46.2028 4.61436C45.8232 4.93397 45.6334 5.4034 45.6334 6.02264C45.6334 6.70181 45.9531 7.23116 46.5923 7.6107C47.2315 7.99024 48.2303 8.39974 49.5886 8.8392C50.947 9.29864 52.0456 9.7381 52.8846 10.1576C53.7435 10.5771 54.4826 11.1863 55.1019 11.9854C55.7211 12.7844 56.0307 13.8131 56.0307 15.0716C56.0307 16.2701 55.7211 17.3588 55.1019 18.3376C54.5026 19.3164 53.6237 20.0954 52.4651 20.6747C51.3065 21.254 49.9382 21.5437 48.3601 21.5437Z" fill="white"/>
<path d="M193 29.2678L191.482 32.1693V33.9275H190.874V32.1693L189.35 29.2678H190.025L191.175 31.6278L192.325 29.2678H193Z" fill="white"/>
<path d="M184.346 31.5942C184.346 31.1396 184.449 30.7318 184.654 30.3708C184.859 30.0053 185.137 29.7201 185.489 29.515C185.846 29.31 186.24 29.2075 186.673 29.2075C187.181 29.2075 187.624 29.3301 188.003 29.5752C188.382 29.8203 188.658 30.168 188.832 30.6181H188.103C187.974 30.3373 187.787 30.1212 187.542 29.9696C187.301 29.8181 187.011 29.7423 186.673 29.7423C186.347 29.7423 186.055 29.8181 185.797 29.9696C185.538 30.1212 185.336 30.3373 185.189 30.6181C185.041 30.8945 184.968 31.2198 184.968 31.5942C184.968 31.9641 185.041 32.2895 185.189 32.5703C185.336 32.8466 185.538 33.0605 185.797 33.212C186.055 33.3636 186.347 33.4393 186.673 33.4393C187.011 33.4393 187.301 33.3658 187.542 33.2187C187.787 33.0672 187.974 32.851 188.103 32.5703H188.832C188.658 33.0159 188.382 33.3614 188.003 33.6065C187.624 33.8472 187.181 33.9675 186.673 33.9675C186.24 33.9675 185.846 33.8672 185.489 33.6666C185.137 33.4616 184.859 33.1786 184.654 32.8176C184.449 32.4566 184.346 32.0488 184.346 31.5942Z" fill="white"/>
<path d="M183.536 33.9274H182.928L180.481 30.217V33.9274H179.873V29.261H180.481L182.928 32.9647V29.261H183.536V33.9274Z" fill="white"/>
<path d="M177.054 29.7624V31.3201H178.752V31.8215H177.054V33.426H178.952V33.9274H176.445V29.261H178.952V29.7624H177.054Z" fill="white"/>
<path d="M174.772 30.6183C174.642 30.3464 174.455 30.1369 174.21 29.9899C173.965 29.8383 173.68 29.7626 173.354 29.7626C173.029 29.7626 172.735 29.8383 172.472 29.9899C172.213 30.1369 172.008 30.3509 171.857 30.6316C171.71 30.908 171.636 31.2289 171.636 31.5943C171.636 31.9598 171.71 32.2807 171.857 32.557C172.008 32.8334 172.213 33.0473 172.472 33.1988C172.735 33.3459 173.029 33.4194 173.354 33.4194C173.809 33.4194 174.183 33.2835 174.477 33.0116C174.772 32.7398 174.943 32.3721 174.992 31.9086H173.134V31.4138H175.641V31.8818C175.605 32.2651 175.485 32.6172 175.28 32.9381C175.075 33.2545 174.805 33.5064 174.471 33.6935C174.136 33.8763 173.764 33.9676 173.354 33.9676C172.922 33.9676 172.528 33.8674 172.171 33.6668C171.814 33.4618 171.531 33.1788 171.322 32.8178C171.117 32.4568 171.014 32.0489 171.014 31.5943C171.014 31.1397 171.117 30.7319 171.322 30.3709C171.531 30.0055 171.814 29.7224 172.171 29.5219C172.528 29.3169 172.922 29.2144 173.354 29.2144C173.849 29.2144 174.286 29.3369 174.665 29.582C175.048 29.8272 175.326 30.1726 175.5 30.6183H174.772Z" fill="white"/>
<path d="M169.491 32.8914H167.459L167.085 33.9276H166.443L168.128 29.2947H168.83L170.508 33.9276H169.866L169.491 32.8914ZM169.318 32.3967L168.475 30.0434L167.633 32.3967H169.318Z" fill="white"/>
<path d="M164.206 29.2678V29.7625H162.936V33.9275H162.327V29.7625H161.051V29.2678H164.206Z" fill="white"/>
<path d="M160.301 33.9274H159.692L157.246 30.217V33.9274H156.637V29.261H157.246L159.692 32.9647V29.261H160.301V33.9274Z" fill="white"/>
<path d="M153.818 29.7624V31.3201H155.516V31.8215H153.818V33.426H155.717V33.9274H153.21V29.261H155.717V29.7624H153.818Z" fill="white"/>
<path d="M152.178 29.3013V33.9275H151.57V30.4779L150.032 33.9275H149.604L148.06 30.4712V33.9275H147.451V29.3013H148.107L149.818 33.1253L151.529 29.3013H152.178Z" fill="white"/>
<path d="M146.695 30.6316C146.695 31.0194 146.562 31.3425 146.294 31.601C146.031 31.8551 145.628 31.9821 145.084 31.9821H144.188V33.9275H143.58V29.2678H145.084C145.61 29.2678 146.009 29.3948 146.281 29.6489C146.557 29.9029 146.695 30.2305 146.695 30.6316ZM145.084 31.4807C145.423 31.4807 145.673 31.4071 145.833 31.2601C145.993 31.113 146.074 30.9035 146.074 30.6316C146.074 30.0567 145.744 29.7692 145.084 29.7692H144.188V31.4807H145.084Z" fill="white"/>
<path d="M140.437 33.9743C140.004 33.9743 139.61 33.874 139.253 33.6735C138.897 33.4685 138.614 33.1855 138.404 32.8244C138.199 32.459 138.097 32.0489 138.097 31.5943C138.097 31.1397 138.199 30.7319 138.404 30.3709C138.614 30.0055 138.897 29.7224 139.253 29.5219C139.61 29.3169 140.004 29.2144 140.437 29.2144C140.874 29.2144 141.27 29.3169 141.627 29.5219C141.983 29.7224 142.264 30.0032 142.469 30.3642C142.674 30.7252 142.777 31.1353 142.777 31.5943C142.777 32.0534 142.674 32.4634 142.469 32.8244C142.264 33.1855 141.983 33.4685 141.627 33.6735C141.27 33.874 140.874 33.9743 140.437 33.9743ZM140.437 33.4462C140.762 33.4462 141.054 33.3704 141.313 33.2189C141.576 33.0673 141.781 32.8512 141.928 32.5704C142.079 32.2896 142.155 31.9643 142.155 31.5943C142.155 31.22 142.079 30.8946 141.928 30.6183C141.781 30.3375 141.578 30.1213 141.319 29.9698C141.061 29.8183 140.767 29.7425 140.437 29.7425C140.107 29.7425 139.813 29.8183 139.554 29.9698C139.296 30.1213 139.091 30.3375 138.939 30.6183C138.792 30.8946 138.719 31.22 138.719 31.5943C138.719 31.9643 138.792 32.2896 138.939 32.5704C139.091 32.8512 139.296 33.0673 139.554 33.2189C139.817 33.3704 140.111 33.4462 140.437 33.4462Z" fill="white"/>
<path d="M136.047 33.4328H137.678V33.9275H135.439V29.2678H136.047V33.4328Z" fill="white"/>
<path d="M132.62 29.7624V31.3201H134.318V31.8215H132.62V33.426H134.518V33.9274H132.011V29.261H134.518V29.7624H132.62Z" fill="white"/>
<path d="M131.344 29.2678L129.586 33.9275H128.884L127.125 29.2678H127.774L129.238 33.2857L130.702 29.2678H131.344Z" fill="white"/>
<path d="M124.674 29.7624V31.3201H126.372V31.8215H124.674V33.426H126.573V33.9274H124.066V29.261H126.573V29.7624H124.674Z" fill="white"/>
<path d="M120.79 29.2678C121.298 29.2678 121.737 29.3636 122.107 29.5553C122.481 29.7425 122.766 30.0121 122.962 30.3642C123.163 30.7163 123.263 31.1308 123.263 31.6077C123.263 32.0846 123.163 32.4991 122.962 32.8512C122.766 33.1988 122.481 33.4662 122.107 33.6534C121.737 33.8361 121.298 33.9275 120.79 33.9275H119.339V29.2678H120.79ZM120.79 33.4261C121.391 33.4261 121.85 33.2679 122.167 32.9515C122.483 32.6306 122.641 32.1826 122.641 31.6077C122.641 31.0283 122.481 30.5759 122.16 30.2506C121.844 29.9252 121.387 29.7625 120.79 29.7625H119.947V33.4261H120.79Z" fill="white"/>
<path d="M116.191 33.9274L115.583 33.3123C115.355 33.5485 115.112 33.7246 114.854 33.8404C114.595 33.9519 114.304 34.0076 113.978 34.0076C113.657 34.0076 113.372 33.9496 113.122 33.8338C112.877 33.7179 112.686 33.553 112.547 33.339C112.414 33.1251 112.347 32.8755 112.347 32.5903C112.347 32.2649 112.438 31.9797 112.621 31.7346C112.808 31.485 113.082 31.2889 113.443 31.1463C113.301 30.9769 113.198 30.8209 113.136 30.6783C113.073 30.5357 113.042 30.3797 113.042 30.2103C113.042 30.0142 113.091 29.8382 113.189 29.6822C113.292 29.5217 113.437 29.3969 113.624 29.3078C113.811 29.2186 114.027 29.1741 114.272 29.1741C114.513 29.1741 114.722 29.2209 114.901 29.3145C115.079 29.4081 115.213 29.5395 115.302 29.7089C115.391 29.8738 115.431 30.0588 115.422 30.2638H114.814C114.818 30.0811 114.767 29.9384 114.66 29.8359C114.553 29.729 114.415 29.6755 114.246 29.6755C114.067 29.6755 113.922 29.7267 113.811 29.8292C113.704 29.9273 113.651 30.0543 113.651 30.2103C113.651 30.344 113.686 30.4733 113.758 30.5981C113.833 30.7228 113.958 30.8766 114.132 31.0593L115.522 32.4566L115.643 32.2694L116.097 31.5073H116.753L116.204 32.4566C116.129 32.5903 116.039 32.7307 115.937 32.8778L116.987 33.9274H116.191ZM113.978 33.4861C114.219 33.4861 114.435 33.4393 114.627 33.3457C114.823 33.2521 115.008 33.1073 115.182 32.9112L113.811 31.534C113.241 31.7524 112.955 32.0978 112.955 32.5702C112.955 32.8332 113.049 33.0516 113.236 33.2254C113.428 33.3992 113.675 33.4861 113.978 33.4861Z" fill="white"/>
<path d="M109.795 33.9274H109.187L106.74 30.217V33.9274H106.131V29.261H106.74L109.187 32.9647V29.261H109.795V33.9274Z" fill="white"/>
<path d="M104.458 30.6183C104.329 30.3464 104.141 30.1369 103.896 29.9899C103.651 29.8383 103.366 29.7626 103.041 29.7626C102.715 29.7626 102.421 29.8383 102.158 29.9899C101.9 30.1369 101.695 30.3509 101.543 30.6316C101.396 30.908 101.322 31.2289 101.322 31.5943C101.322 31.9598 101.396 32.2807 101.543 32.557C101.695 32.8334 101.9 33.0473 102.158 33.1988C102.421 33.3459 102.715 33.4194 103.041 33.4194C103.495 33.4194 103.87 33.2835 104.164 33.0116C104.458 32.7398 104.629 32.3721 104.678 31.9086H102.82V31.4138H105.327V31.8818C105.291 32.2651 105.171 32.6172 104.966 32.9381C104.761 33.2545 104.491 33.5064 104.157 33.6935C103.823 33.8763 103.451 33.9676 103.041 33.9676C102.608 33.9676 102.214 33.8674 101.857 33.6668C101.501 33.4618 101.218 33.1788 101.008 32.8178C100.803 32.4568 100.701 32.0489 100.701 31.5943C100.701 31.1397 100.803 30.7319 101.008 30.3709C101.218 30.0055 101.501 29.7224 101.857 29.5219C102.214 29.3169 102.608 29.2144 103.041 29.2144C103.535 29.2144 103.972 29.3369 104.351 29.582C104.734 29.8272 105.013 30.1726 105.187 30.6183H104.458Z" fill="white"/>
<path d="M99.8913 29.2678V33.9275H99.283V29.2678H99.8913Z" fill="white"/>
<path d="M96.8368 33.9742C96.5292 33.9742 96.2529 33.9207 96.0078 33.8137C95.7671 33.7023 95.5777 33.5508 95.4395 33.3591C95.3014 33.163 95.23 32.9379 95.2256 32.6839H95.8741C95.8964 32.9023 95.9855 33.0873 96.1415 33.2388C96.3019 33.3859 96.5337 33.4594 96.8368 33.4594C97.1265 33.4594 97.3538 33.3881 97.5187 33.2455C97.688 33.0984 97.7727 32.9112 97.7727 32.6839C97.7727 32.5056 97.7237 32.3608 97.6256 32.2494C97.5276 32.1379 97.405 32.0532 97.2579 31.9953C97.1109 31.9374 96.9125 31.875 96.6629 31.8081C96.3554 31.7279 96.1081 31.6477 95.9209 31.5674C95.7381 31.4872 95.5799 31.3624 95.4462 31.1931C95.317 31.0192 95.2523 30.7875 95.2523 30.4978C95.2523 30.2437 95.317 30.0187 95.4462 29.8226C95.5755 29.6265 95.756 29.4749 95.9877 29.368C96.2239 29.261 96.4936 29.2075 96.7966 29.2075C97.2334 29.2075 97.59 29.3167 97.8663 29.5351C98.1471 29.7535 98.3053 30.0432 98.341 30.4042H97.6724C97.6501 30.2259 97.5565 30.0699 97.3916 29.9362C97.2267 29.7981 97.0083 29.729 96.7365 29.729C96.4824 29.729 96.2752 29.7958 96.1147 29.9295C95.9543 30.0588 95.8741 30.2415 95.8741 30.4777C95.8741 30.6471 95.9209 30.7853 96.0145 30.8922C96.1125 30.9992 96.2306 31.0816 96.3688 31.1396C96.5114 31.1931 96.7097 31.2555 96.9638 31.3268C97.2713 31.4115 97.5187 31.4961 97.7059 31.5808C97.893 31.661 98.0535 31.7881 98.1872 31.9619C98.3209 32.1312 98.3878 32.363 98.3878 32.6572C98.3878 32.8845 98.3276 33.0984 98.2073 33.299C98.0869 33.4995 97.9086 33.6622 97.6724 33.787C97.4362 33.9118 97.1577 33.9742 96.8368 33.9742Z" fill="white"/>
<path d="M92.54 29.7624V31.3201H94.2381V31.8215H92.54V33.426H94.4386V33.9274H91.9316V29.261H94.4386V29.7624H92.54Z" fill="white"/>
<path d="M88.6556 29.2678C89.1636 29.2678 89.6026 29.3636 89.9726 29.5553C90.3469 29.7425 90.6322 30.0121 90.8283 30.3642C91.0289 30.7163 91.1291 31.1308 91.1291 31.6077C91.1291 32.0846 91.0289 32.4991 90.8283 32.8512C90.6322 33.1988 90.3469 33.4662 89.9726 33.6534C89.6026 33.8361 89.1636 33.9275 88.6556 33.9275H87.2048V29.2678H88.6556ZM88.6556 33.4261C89.2572 33.4261 89.7163 33.2679 90.0327 32.9515C90.3492 32.6306 90.5074 32.1826 90.5074 31.6077C90.5074 31.0283 90.3469 30.5759 90.0261 30.2506C89.7096 29.9252 89.2528 29.7625 88.6556 29.7625H87.8132V33.4261H88.6556Z" fill="white"/>
<path d="M83.1757 31.601L84.6063 33.9275H83.9177L82.8013 32.1091L81.7383 33.9275H81.0631L82.4871 31.601L81.0564 29.2678H81.7383L82.8614 31.0929L83.9311 29.2678H84.613L83.1757 31.601Z" fill="white"/>
<path d="M77.354 29.2678V32.2161C77.354 32.6306 77.4543 32.9381 77.6548 33.1386C77.8598 33.3392 78.1428 33.4395 78.5039 33.4395C78.8604 33.4395 79.139 33.3392 79.3395 33.1386C79.5445 32.9381 79.647 32.6306 79.647 32.2161V29.2678H80.2554V32.2094C80.2554 32.5971 80.1774 32.9247 80.0214 33.1921C79.8654 33.4551 79.6537 33.6512 79.3863 33.7804C79.1234 33.9097 78.827 33.9743 78.4972 33.9743C78.1674 33.9743 77.8687 33.9097 77.6013 33.7804C77.3384 33.6512 77.1289 33.4551 76.9729 33.1921C76.8214 32.9247 76.7456 32.5971 76.7456 32.2094V29.2678H77.354Z" fill="white"/>
<path d="M75.8527 27.6299L74.0209 35.064H73.4192L75.2443 27.6299H75.8527Z" fill="white"/>
<path d="M72.5427 29.2678V33.9275H71.9343V29.2678H72.5427Z" fill="white"/>
<path d="M68.018 29.2678V32.2161C68.018 32.6306 68.1183 32.9381 68.3189 33.1386C68.5239 33.3392 68.8069 33.4395 69.1679 33.4395C69.5245 33.4395 69.803 33.3392 70.0036 33.1386C70.2086 32.9381 70.3111 32.6306 70.3111 32.2161V29.2678H70.9195V32.2094C70.9195 32.5971 70.8415 32.9247 70.6855 33.1921C70.5295 33.4551 70.3178 33.6512 70.0504 33.7804C69.7874 33.9097 69.491 33.9743 69.1612 33.9743C68.8314 33.9743 68.5328 33.9097 68.2654 33.7804C68.0024 33.6512 67.793 33.4551 67.637 33.1921C67.4854 32.9247 67.4097 32.5971 67.4097 32.2094V29.2678H68.018Z" fill="white"/>
<path d="M63.3635 33.4328H64.9947V33.9275H62.7551V29.2678H63.3635V33.4328Z" fill="white"/>
<path d="M61.0046 32.8914H58.9722L58.5978 33.9276H57.9561L59.6408 29.2947H60.3427L62.0207 33.9276H61.379L61.0046 32.8914ZM60.8308 32.3967L59.9884 30.0434L59.146 32.3967H60.8308Z" fill="white"/>
<path d="M56.4833 31.5275C56.6527 31.5542 56.8065 31.6233 56.9446 31.7347C57.0872 31.8461 57.1987 31.9843 57.2789 32.1492C57.3636 32.3141 57.4059 32.4902 57.4059 32.6774C57.4059 32.9136 57.3457 33.1275 57.2254 33.3191C57.1051 33.5063 56.929 33.6556 56.6973 33.7671C56.47 33.874 56.2003 33.9275 55.8883 33.9275H54.1501V29.2678H55.8215C56.1379 29.2678 56.4076 29.3213 56.6304 29.4283C56.8533 29.5308 57.0204 29.6712 57.1318 29.8494C57.2432 30.0277 57.2989 30.2283 57.2989 30.4511C57.2989 30.7275 57.2232 30.957 57.0716 31.1397C56.9246 31.318 56.7285 31.4472 56.4833 31.5275ZM54.7585 31.2801H55.7814C56.0666 31.2801 56.2872 31.2133 56.4432 31.0796C56.5992 30.9458 56.6772 30.7609 56.6772 30.5247C56.6772 30.2885 56.5992 30.1035 56.4432 29.9698C56.2872 29.8361 56.0622 29.7692 55.768 29.7692H54.7585V31.2801ZM55.8349 33.4261C56.1379 33.4261 56.3741 33.3548 56.5435 33.2122C56.7129 33.0696 56.7975 32.8712 56.7975 32.6172C56.7975 32.3587 56.7084 32.1559 56.5301 32.0088C56.3519 31.8573 56.1134 31.7815 55.8148 31.7815H54.7585V33.4261H55.8349Z" fill="white"/>
<path d="M51.0071 33.9743C50.5748 33.9743 50.1804 33.874 49.8238 33.6735C49.4673 33.4685 49.1842 33.1855 48.9748 32.8244C48.7697 32.459 48.6672 32.0489 48.6672 31.5943C48.6672 31.1397 48.7697 30.7319 48.9748 30.3709C49.1842 30.0055 49.4673 29.7224 49.8238 29.5219C50.1804 29.3169 50.5748 29.2144 51.0071 29.2144C51.4439 29.2144 51.8405 29.3169 52.1971 29.5219C52.5537 29.7224 52.8344 30.0032 53.0395 30.3642C53.2445 30.7252 53.347 31.1353 53.347 31.5943C53.347 32.0534 53.2445 32.4634 53.0395 32.8244C52.8344 33.1855 52.5537 33.4685 52.1971 33.6735C51.8405 33.874 51.4439 33.9743 51.0071 33.9743ZM51.0071 33.4462C51.3325 33.4462 51.6244 33.3704 51.8829 33.2189C52.1458 33.0673 52.3509 32.8512 52.4979 32.5704C52.6495 32.2896 52.7252 31.9643 52.7252 31.5943C52.7252 31.22 52.6495 30.8946 52.4979 30.6183C52.3509 30.3375 52.1481 30.1213 51.8896 29.9698C51.6311 29.8183 51.3369 29.7425 51.0071 29.7425C50.6773 29.7425 50.3831 29.8183 50.1246 29.9698C49.8661 30.1213 49.6611 30.3375 49.5096 30.6183C49.3625 30.8946 49.289 31.22 49.289 31.5943C49.289 31.9643 49.3625 32.2896 49.5096 32.5704C49.6611 32.8512 49.8661 33.0673 50.1246 33.2189C50.3876 33.3704 50.6818 33.4462 51.0071 33.4462Z" fill="white"/>
<path d="M46.6174 33.4328H48.2486V33.9275H46.009V29.2678H46.6174V33.4328Z" fill="white"/>
<path d="M44.3355 30.6183C44.2063 30.3464 44.0191 30.1369 43.774 29.9899C43.5288 29.8383 43.2436 29.7626 42.9182 29.7626C42.5929 29.7626 42.2987 29.8383 42.0358 29.9899C41.7773 30.1369 41.5723 30.3509 41.4207 30.6316C41.2736 30.908 41.2001 31.2289 41.2001 31.5943C41.2001 31.9598 41.2736 32.2807 41.4207 32.557C41.5723 32.8334 41.7773 33.0473 42.0358 33.1988C42.2987 33.3459 42.5929 33.4194 42.9182 33.4194C43.3728 33.4194 43.7472 33.2835 44.0414 33.0116C44.3355 32.7398 44.5071 32.3721 44.5562 31.9086H42.6976V31.4138H45.2046V31.8818C45.169 32.2651 45.0486 32.6172 44.8436 32.9381C44.6386 33.2545 44.369 33.5064 44.0347 33.6935C43.7004 33.8763 43.3283 33.9676 42.9182 33.9676C42.4859 33.9676 42.0915 33.8674 41.7349 33.6668C41.3784 33.4618 41.0954 33.1788 40.8859 32.8178C40.6809 32.4568 40.5784 32.0489 40.5784 31.5943C40.5784 31.1397 40.6809 30.7319 40.8859 30.3709C41.0954 30.0055 41.3784 29.7224 41.7349 29.5219C42.0915 29.3169 42.4859 29.2144 42.9182 29.2144C43.413 29.2144 43.8497 29.3369 44.2286 29.582C44.6119 29.8272 44.8904 30.1726 45.0642 30.6183H44.3355Z" fill="white"/>
</svg>
