<svg width="193" height="36" viewBox="0 0 193 36" fill="none" xmlns="http://www.w3.org/2000/svg">
<path d="M32.4718 0.0342315C32.4718 2.58596 31.4524 5.03317 29.6378 6.83751C27.8232 8.64185 25.362 9.65552 22.7958 9.65552C20.2296 9.65552 17.7685 8.64185 15.9539 6.83751C14.1393 5.03317 13.1199 2.58596 13.1199 0.0342333L22.7958 0.0342315H32.4718Z" fill="black"/>
<path d="M22.8504 33.9274C22.8504 31.3757 21.831 28.9285 20.0164 27.1242C18.2018 25.3198 15.7407 24.3062 13.1745 24.3062C10.6083 24.3062 8.14715 25.3198 6.33256 27.1242C4.51796 28.9285 3.49854 31.3757 3.49854 33.9274L13.1745 33.9274H22.8504Z" fill="black"/>
<path d="M18.0082 16.7933C15.7984 18.0692 13.1693 18.4099 10.6994 17.7406C8.22951 17.0713 6.12109 15.4468 4.83798 13.2243C3.55487 11.0019 3.20217 8.36371 3.85748 5.89006C4.51279 3.4164 6.12242 1.30995 8.33228 0.0340847L13.1703 8.41371L18.0082 16.7933Z" fill="black"/>
<path d="M18.0401 16.7621C20.25 15.4862 22.879 15.1455 25.3489 15.8148C27.8188 16.4841 29.9273 18.1087 31.2104 20.3311C32.4935 22.5535 32.8462 25.1917 32.1909 27.6654C31.5356 30.139 29.9259 32.2455 27.7161 33.5213L22.8781 25.1417L18.0401 16.7621Z" fill="black"/>
<path d="M186.162 17.6184H178.312L177.053 21.3339H171.69L179.301 0.299561H185.233L192.844 21.3339H187.421L186.162 17.6184ZM184.844 13.6632L182.237 5.96264L179.66 13.6632H184.844Z" fill="black"/>
<path d="M170.497 0.299561V4.40455H164.923V21.3339H159.8V4.40455H154.227V0.299561H170.497Z" fill="black"/>
<path d="M144.542 21.5437C143.003 21.5437 141.625 21.294 140.407 20.7946C139.188 20.2952 138.209 19.5561 137.47 18.5773C136.751 17.5985 136.371 16.4199 136.332 15.0416H141.785C141.865 15.8207 142.134 16.4199 142.594 16.8394C143.053 17.2389 143.653 17.4387 144.392 17.4387C145.151 17.4387 145.75 17.2689 146.189 16.9293C146.629 16.5698 146.849 16.0804 146.849 15.4611C146.849 14.9417 146.669 14.5123 146.309 14.1727C145.97 13.8331 145.54 13.5534 145.021 13.3337C144.522 13.114 143.802 12.8643 142.864 12.5846C141.505 12.1651 140.397 11.7457 139.538 11.3262C138.679 10.9067 137.94 10.2874 137.32 9.46843C136.701 8.64943 136.391 7.58074 136.391 6.26235C136.391 4.30474 137.101 2.77661 138.519 1.67795C139.937 0.559317 141.785 0 144.062 0C146.379 0 148.247 0.559317 149.665 1.67795C151.084 2.77661 151.843 4.31473 151.942 6.29231H146.399C146.359 5.61314 146.11 5.08379 145.65 4.70425C145.191 4.30474 144.601 4.10498 143.882 4.10498C143.263 4.10498 142.764 4.27478 142.384 4.61436C142.005 4.93397 141.815 5.4034 141.815 6.02264C141.815 6.70181 142.134 7.23116 142.774 7.6107C143.413 7.99024 144.412 8.39974 145.77 8.8392C147.128 9.29864 148.227 9.7381 149.066 10.1576C149.925 10.5771 150.664 11.1863 151.283 11.9854C151.903 12.7844 152.212 13.8131 152.212 15.0716C152.212 16.2701 151.903 17.3588 151.283 18.3376C150.684 19.3164 149.805 20.0954 148.646 20.6747C147.488 21.254 146.12 21.5437 144.542 21.5437Z" fill="black"/>
<path d="M134.866 0.299561L127.585 14.3824V21.3339H122.462V14.3824L115.18 0.299561H120.993L125.068 9.1088L129.113 0.299561H134.866Z" fill="black"/>
<path d="M114.257 0.299561V4.40455H108.684V21.3339H103.56V4.40455H97.9868V0.299561H114.257Z" fill="black"/>
<path d="M96.4323 0.299561V4.40455H87.8628V8.83913H94.2749V12.8243H87.8628V21.3339H82.739V0.299561H96.4323Z" fill="black"/>
<path d="M69.1317 21.5437C67.1541 21.5437 65.3364 21.0842 63.6784 20.1654C62.0404 19.2465 60.732 17.968 59.7532 16.33C58.7944 14.6721 58.3149 12.8143 58.3149 10.7569C58.3149 8.69937 58.7944 6.85163 59.7532 5.21363C60.732 3.57563 62.0404 2.29719 63.6784 1.37832C65.3364 0.459439 67.1541 0 69.1317 0C71.1093 0 72.9171 0.459439 74.5551 1.37832C76.2131 2.29719 77.5115 3.57563 78.4503 5.21363C79.4092 6.85163 79.8886 8.69937 79.8886 10.7569C79.8886 12.8143 79.4092 14.6721 78.4503 16.33C77.4915 17.968 76.1931 19.2465 74.5551 20.1654C72.9171 21.0842 71.1093 21.5437 69.1317 21.5437ZM69.1317 16.8694C70.8097 16.8694 72.148 16.3101 73.1468 15.1914C74.1656 14.0728 74.675 12.5946 74.675 10.7569C74.675 8.89913 74.1656 7.42093 73.1468 6.32227C72.148 5.20364 70.8097 4.64433 69.1317 4.64433C67.4338 4.64433 66.0755 5.19365 65.0567 6.29231C64.0579 7.39097 63.5585 8.87915 63.5585 10.7569C63.5585 12.6146 64.0579 14.1028 65.0567 15.2214C66.0755 16.3201 67.4338 16.8694 69.1317 16.8694Z" fill="black"/>
<path d="M48.3601 21.5437C46.822 21.5437 45.4437 21.294 44.2252 20.7946C43.0067 20.2952 42.0279 19.5561 41.2888 18.5773C40.5696 17.5985 40.1901 16.4199 40.1501 15.0416H45.6035C45.6834 15.8207 45.9531 16.4199 46.4125 16.8394C46.8719 17.2389 47.4712 17.4387 48.2103 17.4387C48.9694 17.4387 49.5686 17.2689 50.0081 16.9293C50.4476 16.5698 50.6673 16.0804 50.6673 15.4611C50.6673 14.9417 50.4875 14.5123 50.128 14.1727C49.7884 13.8331 49.3589 13.5534 48.8395 13.3337C48.3401 13.114 47.621 12.8643 46.6822 12.5846C45.3238 12.1651 44.2152 11.7457 43.3562 11.3262C42.4973 10.9067 41.7582 10.2874 41.1389 9.46843C40.5197 8.64943 40.2101 7.58074 40.2101 6.26235C40.2101 4.30474 40.9192 2.77661 42.3375 1.67795C43.7557 0.559317 45.6035 0 47.8807 0C50.1979 0 52.0656 0.559317 53.4839 1.67795C54.9021 2.77661 55.6612 4.31473 55.7611 6.29231H50.2178C50.1779 5.61314 49.9282 5.08379 49.4688 4.70425C49.0093 4.30474 48.42 4.10498 47.7009 4.10498C47.0817 4.10498 46.5823 4.27478 46.2028 4.61436C45.8232 4.93397 45.6334 5.4034 45.6334 6.02264C45.6334 6.70181 45.9531 7.23116 46.5923 7.6107C47.2315 7.99024 48.2303 8.39974 49.5886 8.8392C50.947 9.29864 52.0456 9.7381 52.8846 10.1576C53.7435 10.5771 54.4826 11.1863 55.1019 11.9854C55.7211 12.7844 56.0307 13.8131 56.0307 15.0716C56.0307 16.2701 55.7211 17.3588 55.1019 18.3376C54.5026 19.3164 53.6237 20.0954 52.4651 20.6747C51.3065 21.254 49.9382 21.5437 48.3601 21.5437Z" fill="black"/>
<path d="M193 29.2676L191.482 32.169V33.9273H190.874V32.169L189.35 29.2676H190.025L191.175 31.6275L192.325 29.2676H193Z" fill="black"/>
<path d="M184.346 31.5939C184.346 31.1393 184.449 30.7315 184.654 30.3705C184.859 30.0051 185.137 29.7198 185.489 29.5148C185.846 29.3098 186.24 29.2073 186.673 29.2073C187.181 29.2073 187.624 29.3298 188.003 29.575C188.382 29.8201 188.658 30.1677 188.832 30.6179H188.103C187.974 30.3371 187.787 30.1209 187.542 29.9694C187.301 29.8179 187.011 29.7421 186.673 29.7421C186.347 29.7421 186.055 29.8179 185.797 29.9694C185.538 30.1209 185.336 30.3371 185.189 30.6179C185.041 30.8942 184.968 31.2196 184.968 31.5939C184.968 31.9639 185.041 32.2892 185.189 32.57C185.336 32.8463 185.538 33.0603 185.797 33.2118C186.055 33.3633 186.347 33.4391 186.673 33.4391C187.011 33.4391 187.301 33.3656 187.542 33.2185C187.787 33.067 187.974 32.8508 188.103 32.57H188.832C188.658 33.0157 188.382 33.3611 188.003 33.6062C187.624 33.8469 187.181 33.9672 186.673 33.9672C186.24 33.9672 185.846 33.867 185.489 33.6664C185.137 33.4614 184.859 33.1784 184.654 32.8174C184.449 32.4564 184.346 32.0485 184.346 31.5939Z" fill="black"/>
<path d="M183.536 33.9271H182.928L180.481 30.2167V33.9271H179.873V29.2607H180.481L182.928 32.9644V29.2607H183.536V33.9271Z" fill="black"/>
<path d="M177.054 29.7621V31.3198H178.752V31.8212H177.054V33.4257H178.952V33.9271H176.445V29.2607H178.952V29.7621H177.054Z" fill="black"/>
<path d="M174.772 30.618C174.642 30.3462 174.455 30.1367 174.21 29.9896C173.965 29.8381 173.68 29.7623 173.354 29.7623C173.029 29.7623 172.735 29.8381 172.472 29.9896C172.213 30.1367 172.008 30.3506 171.857 30.6314C171.71 30.9077 171.636 31.2286 171.636 31.5941C171.636 31.9596 171.71 32.2805 171.857 32.5568C172.008 32.8331 172.213 33.047 172.472 33.1986C172.735 33.3457 173.029 33.4192 173.354 33.4192C173.809 33.4192 174.183 33.2833 174.477 33.0114C174.772 32.7395 174.943 32.3718 174.992 31.9083H173.134V31.4136H175.641V31.8816C175.605 32.2649 175.485 32.617 175.28 32.9379C175.075 33.2543 174.805 33.5061 174.471 33.6933C174.136 33.876 173.764 33.9674 173.354 33.9674C172.922 33.9674 172.528 33.8671 172.171 33.6666C171.814 33.4615 171.531 33.1785 171.322 32.8175C171.117 32.4565 171.014 32.0487 171.014 31.5941C171.014 31.1395 171.117 30.7317 171.322 30.3707C171.531 30.0052 171.814 29.7222 172.171 29.5216C172.528 29.3166 172.922 29.2141 173.354 29.2141C173.849 29.2141 174.286 29.3367 174.665 29.5818C175.048 29.8269 175.326 30.1723 175.5 30.618H174.772Z" fill="black"/>
<path d="M169.491 32.8912H167.459L167.085 33.9274H166.443L168.128 29.2944H168.83L170.508 33.9274H169.866L169.491 32.8912ZM169.318 32.3964L168.475 30.0432L167.633 32.3964H169.318Z" fill="black"/>
<path d="M164.206 29.2676V29.7623H162.936V33.9273H162.327V29.7623H161.051V29.2676H164.206Z" fill="black"/>
<path d="M160.301 33.9271H159.692L157.246 30.2167V33.9271H156.637V29.2607H157.246L159.692 32.9644V29.2607H160.301V33.9271Z" fill="black"/>
<path d="M153.818 29.7621V31.3198H155.516V31.8212H153.818V33.4257H155.717V33.9271H153.21V29.2607H155.717V29.7621H153.818Z" fill="black"/>
<path d="M152.178 29.301V33.9273H151.57V30.4776L150.032 33.9273H149.604L148.06 30.471V33.9273H147.451V29.301H148.107L149.818 33.125L151.529 29.301H152.178Z" fill="black"/>
<path d="M146.695 30.6314C146.695 31.0191 146.562 31.3423 146.294 31.6008C146.031 31.8548 145.628 31.9818 145.084 31.9818H144.188V33.9273H143.58V29.2676H145.084C145.61 29.2676 146.009 29.3946 146.281 29.6486C146.557 29.9027 146.695 30.2303 146.695 30.6314ZM145.084 31.4804C145.423 31.4804 145.673 31.4069 145.833 31.2598C145.993 31.1127 146.074 30.9033 146.074 30.6314C146.074 30.0564 145.744 29.769 145.084 29.769H144.188V31.4804H145.084Z" fill="black"/>
<path d="M140.437 33.9741C140.004 33.9741 139.61 33.8738 139.253 33.6732C138.897 33.4682 138.614 33.1852 138.404 32.8242C138.199 32.4587 138.097 32.0487 138.097 31.5941C138.097 31.1395 138.199 30.7317 138.404 30.3707C138.614 30.0052 138.897 29.7222 139.253 29.5216C139.61 29.3166 140.004 29.2141 140.437 29.2141C140.874 29.2141 141.27 29.3166 141.627 29.5216C141.983 29.7222 142.264 30.003 142.469 30.364C142.674 30.725 142.777 31.135 142.777 31.5941C142.777 32.0532 142.674 32.4632 142.469 32.8242C142.264 33.1852 141.983 33.4682 141.627 33.6732C141.27 33.8738 140.874 33.9741 140.437 33.9741ZM140.437 33.4459C140.762 33.4459 141.054 33.3702 141.313 33.2186C141.576 33.0671 141.781 32.8509 141.928 32.5702C142.079 32.2894 142.155 31.964 142.155 31.5941C142.155 31.2197 142.079 30.8944 141.928 30.618C141.781 30.3373 141.578 30.1211 141.319 29.9696C141.061 29.818 140.767 29.7423 140.437 29.7423C140.107 29.7423 139.813 29.818 139.554 29.9696C139.296 30.1211 139.091 30.3373 138.939 30.618C138.792 30.8944 138.719 31.2197 138.719 31.5941C138.719 31.964 138.792 32.2894 138.939 32.5702C139.091 32.8509 139.296 33.0671 139.554 33.2186C139.817 33.3702 140.111 33.4459 140.437 33.4459Z" fill="black"/>
<path d="M136.047 33.4326H137.678V33.9273H135.439V29.2676H136.047V33.4326Z" fill="black"/>
<path d="M132.62 29.7621V31.3198H134.318V31.8212H132.62V33.4257H134.518V33.9271H132.011V29.2607H134.518V29.7621H132.62Z" fill="black"/>
<path d="M131.344 29.2676L129.586 33.9273H128.884L127.125 29.2676H127.774L129.238 33.2855L130.702 29.2676H131.344Z" fill="black"/>
<path d="M124.674 29.7621V31.3198H126.372V31.8212H124.674V33.4257H126.573V33.9271H124.066V29.2607H126.573V29.7621H124.674Z" fill="black"/>
<path d="M120.79 29.2676C121.298 29.2676 121.737 29.3634 122.107 29.555C122.481 29.7422 122.766 30.0119 122.962 30.364C123.163 30.7161 123.263 31.1306 123.263 31.6075C123.263 32.0843 123.163 32.4988 122.962 32.8509C122.766 33.1986 122.481 33.466 122.107 33.6532C121.737 33.8359 121.298 33.9273 120.79 33.9273H119.339V29.2676H120.79ZM120.79 33.4259C121.391 33.4259 121.85 33.2676 122.167 32.9512C122.483 32.6303 122.641 32.1824 122.641 31.6075C122.641 31.0281 122.481 30.5757 122.16 30.2503C121.844 29.925 121.387 29.7623 120.79 29.7623H119.947V33.4259H120.79Z" fill="black"/>
<path d="M116.191 33.9274L115.583 33.3123C115.355 33.5485 115.112 33.7246 114.854 33.8404C114.595 33.9519 114.304 34.0076 113.978 34.0076C113.657 34.0076 113.372 33.9496 113.122 33.8338C112.877 33.7179 112.686 33.553 112.547 33.339C112.414 33.1251 112.347 32.8755 112.347 32.5903C112.347 32.2649 112.438 31.9797 112.621 31.7346C112.808 31.485 113.082 31.2889 113.443 31.1463C113.301 30.9769 113.198 30.8209 113.136 30.6783C113.073 30.5357 113.042 30.3797 113.042 30.2103C113.042 30.0142 113.091 29.8382 113.189 29.6822C113.292 29.5217 113.437 29.3969 113.624 29.3078C113.811 29.2186 114.027 29.1741 114.272 29.1741C114.513 29.1741 114.722 29.2209 114.901 29.3145C115.079 29.4081 115.213 29.5395 115.302 29.7089C115.391 29.8738 115.431 30.0588 115.422 30.2638H114.814C114.818 30.0811 114.767 29.9384 114.66 29.8359C114.553 29.729 114.415 29.6755 114.246 29.6755C114.067 29.6755 113.922 29.7267 113.811 29.8292C113.704 29.9273 113.651 30.0543 113.651 30.2103C113.651 30.344 113.686 30.4733 113.758 30.5981C113.833 30.7228 113.958 30.8766 114.132 31.0593L115.522 32.4566L115.643 32.2694L116.097 31.5073H116.753L116.204 32.4566C116.129 32.5903 116.039 32.7307 115.937 32.8778L116.987 33.9274H116.191ZM113.978 33.4861C114.219 33.4861 114.435 33.4393 114.627 33.3457C114.823 33.2521 115.008 33.1073 115.182 32.9112L113.811 31.534C113.241 31.7524 112.955 32.0978 112.955 32.5702C112.955 32.8332 113.049 33.0516 113.236 33.2254C113.428 33.3992 113.675 33.4861 113.978 33.4861Z" fill="black"/>
<path d="M109.795 33.9271H109.187L106.74 30.2167V33.9271H106.131V29.2607H106.74L109.187 32.9644V29.2607H109.795V33.9271Z" fill="black"/>
<path d="M104.458 30.618C104.329 30.3462 104.141 30.1367 103.896 29.9896C103.651 29.8381 103.366 29.7623 103.041 29.7623C102.715 29.7623 102.421 29.8381 102.158 29.9896C101.9 30.1367 101.695 30.3506 101.543 30.6314C101.396 30.9077 101.322 31.2286 101.322 31.5941C101.322 31.9596 101.396 32.2805 101.543 32.5568C101.695 32.8331 101.9 33.047 102.158 33.1986C102.421 33.3457 102.715 33.4192 103.041 33.4192C103.495 33.4192 103.87 33.2833 104.164 33.0114C104.458 32.7395 104.629 32.3718 104.678 31.9083H102.82V31.4136H105.327V31.8816C105.291 32.2649 105.171 32.617 104.966 32.9379C104.761 33.2543 104.491 33.5061 104.157 33.6933C103.823 33.876 103.451 33.9674 103.041 33.9674C102.608 33.9674 102.214 33.8671 101.857 33.6666C101.501 33.4615 101.218 33.1785 101.008 32.8175C100.803 32.4565 100.701 32.0487 100.701 31.5941C100.701 31.1395 100.803 30.7317 101.008 30.3707C101.218 30.0052 101.501 29.7222 101.857 29.5216C102.214 29.3166 102.608 29.2141 103.041 29.2141C103.535 29.2141 103.972 29.3367 104.351 29.5818C104.734 29.8269 105.013 30.1723 105.187 30.618H104.458Z" fill="black"/>
<path d="M99.8913 29.2676V33.9273H99.283V29.2676H99.8913Z" fill="black"/>
<path d="M96.8368 33.9739C96.5292 33.9739 96.2529 33.9204 96.0078 33.8135C95.7671 33.7021 95.5777 33.5505 95.4395 33.3589C95.3014 33.1628 95.23 32.9377 95.2256 32.6837H95.8741C95.8964 32.902 95.9855 33.087 96.1415 33.2385C96.3019 33.3856 96.5337 33.4592 96.8368 33.4592C97.1265 33.4592 97.3538 33.3878 97.5187 33.2452C97.688 33.0981 97.7727 32.911 97.7727 32.6837C97.7727 32.5054 97.7237 32.3605 97.6256 32.2491C97.5276 32.1377 97.405 32.053 97.2579 31.9951C97.1109 31.9371 96.9125 31.8747 96.6629 31.8079C96.3554 31.7277 96.1081 31.6474 95.9209 31.5672C95.7381 31.487 95.5799 31.3622 95.4462 31.1928C95.317 31.019 95.2523 30.7872 95.2523 30.4975C95.2523 30.2435 95.317 30.0184 95.4462 29.8223C95.5755 29.6262 95.756 29.4747 95.9877 29.3677C96.2239 29.2608 96.4936 29.2073 96.7966 29.2073C97.2334 29.2073 97.59 29.3165 97.8663 29.5349C98.1471 29.7532 98.3053 30.0429 98.341 30.404H97.6724C97.6501 30.2257 97.5565 30.0697 97.3916 29.936C97.2267 29.7978 97.0083 29.7287 96.7365 29.7287C96.4824 29.7287 96.2752 29.7956 96.1147 29.9293C95.9543 30.0585 95.8741 30.2413 95.8741 30.4775C95.8741 30.6469 95.9209 30.785 96.0145 30.892C96.1125 30.9989 96.2306 31.0814 96.3688 31.1393C96.5114 31.1928 96.7097 31.2552 96.9638 31.3265C97.2713 31.4112 97.5187 31.4959 97.7059 31.5806C97.893 31.6608 98.0535 31.7878 98.1872 31.9616C98.3209 32.131 98.3878 32.3628 98.3878 32.6569C98.3878 32.8842 98.3276 33.0981 98.2073 33.2987C98.0869 33.4993 97.9086 33.6619 97.6724 33.7867C97.4362 33.9115 97.1577 33.9739 96.8368 33.9739Z" fill="black"/>
<path d="M92.54 29.7621V31.3198H94.2381V31.8212H92.54V33.4257H94.4386V33.9271H91.9316V29.2607H94.4386V29.7621H92.54Z" fill="black"/>
<path d="M88.6556 29.2676C89.1636 29.2676 89.6026 29.3634 89.9726 29.555C90.3469 29.7422 90.6322 30.0119 90.8283 30.364C91.0289 30.7161 91.1291 31.1306 91.1291 31.6075C91.1291 32.0843 91.0289 32.4988 90.8283 32.8509C90.6322 33.1986 90.3469 33.466 89.9726 33.6532C89.6026 33.8359 89.1636 33.9273 88.6556 33.9273H87.2048V29.2676H88.6556ZM88.6556 33.4259C89.2572 33.4259 89.7163 33.2676 90.0327 32.9512C90.3492 32.6303 90.5074 32.1824 90.5074 31.6075C90.5074 31.0281 90.3469 30.5757 90.0261 30.2503C89.7096 29.925 89.2528 29.7623 88.6556 29.7623H87.8132V33.4259H88.6556Z" fill="black"/>
<path d="M83.1757 31.6008L84.6063 33.9273H83.9177L82.8013 32.1089L81.7383 33.9273H81.0631L82.4871 31.6008L81.0564 29.2676H81.7383L82.8614 31.0927L83.9311 29.2676H84.613L83.1757 31.6008Z" fill="black"/>
<path d="M77.354 29.2676V32.2158C77.354 32.6303 77.4543 32.9378 77.6548 33.1384C77.8598 33.339 78.1428 33.4392 78.5039 33.4392C78.8604 33.4392 79.139 33.339 79.3395 33.1384C79.5445 32.9378 79.647 32.6303 79.647 32.2158V29.2676H80.2554V32.2091C80.2554 32.5969 80.1774 32.9245 80.0214 33.1919C79.8654 33.4548 79.6537 33.6509 79.3863 33.7802C79.1234 33.9094 78.827 33.9741 78.4972 33.9741C78.1674 33.9741 77.8687 33.9094 77.6013 33.7802C77.3384 33.6509 77.1289 33.4548 76.9729 33.1919C76.8214 32.9245 76.7456 32.5969 76.7456 32.2091V29.2676H77.354Z" fill="black"/>
<path d="M75.8527 27.6296L74.0209 35.0637H73.4192L75.2443 27.6296H75.8527Z" fill="black"/>
<path d="M72.5427 29.2676V33.9273H71.9343V29.2676H72.5427Z" fill="black"/>
<path d="M68.018 29.2676V32.2158C68.018 32.6303 68.1183 32.9378 68.3189 33.1384C68.5239 33.339 68.8069 33.4392 69.1679 33.4392C69.5245 33.4392 69.803 33.339 70.0036 33.1384C70.2086 32.9378 70.3111 32.6303 70.3111 32.2158V29.2676H70.9195V32.2091C70.9195 32.5969 70.8415 32.9245 70.6855 33.1919C70.5295 33.4548 70.3178 33.6509 70.0504 33.7802C69.7874 33.9094 69.491 33.9741 69.1612 33.9741C68.8314 33.9741 68.5328 33.9094 68.2654 33.7802C68.0024 33.6509 67.793 33.4548 67.637 33.1919C67.4854 32.9245 67.4097 32.5969 67.4097 32.2091V29.2676H68.018Z" fill="black"/>
<path d="M63.3635 33.4326H64.9947V33.9273H62.7551V29.2676H63.3635V33.4326Z" fill="black"/>
<path d="M61.0046 32.8912H58.9722L58.5978 33.9274H57.9561L59.6408 29.2944H60.3427L62.0207 33.9274H61.379L61.0046 32.8912ZM60.8308 32.3964L59.9884 30.0432L59.146 32.3964H60.8308Z" fill="black"/>
<path d="M56.4833 31.5272C56.6527 31.554 56.8065 31.623 56.9446 31.7345C57.0872 31.8459 57.1987 31.9841 57.2789 32.149C57.3636 32.3139 57.4059 32.4899 57.4059 32.6771C57.4059 32.9133 57.3457 33.1273 57.2254 33.3189C57.1051 33.5061 56.929 33.6554 56.6973 33.7668C56.47 33.8738 56.2003 33.9273 55.8883 33.9273H54.1501V29.2676H55.8215C56.1379 29.2676 56.4076 29.3211 56.6304 29.428C56.8533 29.5305 57.0204 29.6709 57.1318 29.8492C57.2432 30.0275 57.2989 30.228 57.2989 30.4509C57.2989 30.7272 57.2232 30.9567 57.0716 31.1395C56.9246 31.3178 56.7285 31.447 56.4833 31.5272ZM54.7585 31.2799H55.7814C56.0666 31.2799 56.2872 31.213 56.4432 31.0793C56.5992 30.9456 56.6772 30.7606 56.6772 30.5244C56.6772 30.2882 56.5992 30.1032 56.4432 29.9695C56.2872 29.8358 56.0622 29.769 55.768 29.769H54.7585V31.2799ZM55.8349 33.4259C56.1379 33.4259 56.3741 33.3546 56.5435 33.2119C56.7129 33.0693 56.7975 32.871 56.7975 32.6169C56.7975 32.3584 56.7084 32.1556 56.5301 32.0086C56.3519 31.857 56.1134 31.7813 55.8148 31.7813H54.7585V33.4259H55.8349Z" fill="black"/>
<path d="M51.0071 33.9741C50.5748 33.9741 50.1804 33.8738 49.8238 33.6732C49.4673 33.4682 49.1842 33.1852 48.9748 32.8242C48.7697 32.4587 48.6672 32.0487 48.6672 31.5941C48.6672 31.1395 48.7697 30.7317 48.9748 30.3707C49.1842 30.0052 49.4673 29.7222 49.8238 29.5216C50.1804 29.3166 50.5748 29.2141 51.0071 29.2141C51.4439 29.2141 51.8405 29.3166 52.1971 29.5216C52.5537 29.7222 52.8344 30.003 53.0395 30.364C53.2445 30.725 53.347 31.135 53.347 31.5941C53.347 32.0532 53.2445 32.4632 53.0395 32.8242C52.8344 33.1852 52.5537 33.4682 52.1971 33.6732C51.8405 33.8738 51.4439 33.9741 51.0071 33.9741ZM51.0071 33.4459C51.3325 33.4459 51.6244 33.3702 51.8829 33.2186C52.1458 33.0671 52.3509 32.8509 52.4979 32.5702C52.6495 32.2894 52.7252 31.964 52.7252 31.5941C52.7252 31.2197 52.6495 30.8944 52.4979 30.618C52.3509 30.3373 52.1481 30.1211 51.8896 29.9696C51.6311 29.818 51.3369 29.7423 51.0071 29.7423C50.6773 29.7423 50.3831 29.818 50.1246 29.9696C49.8661 30.1211 49.6611 30.3373 49.5096 30.618C49.3625 30.8944 49.289 31.2197 49.289 31.5941C49.289 31.964 49.3625 32.2894 49.5096 32.5702C49.6611 32.8509 49.8661 33.0671 50.1246 33.2186C50.3876 33.3702 50.6818 33.4459 51.0071 33.4459Z" fill="black"/>
<path d="M46.6174 33.4326H48.2486V33.9273H46.009V29.2676H46.6174V33.4326Z" fill="black"/>
<path d="M44.3355 30.618C44.2063 30.3462 44.0191 30.1367 43.774 29.9896C43.5288 29.8381 43.2436 29.7623 42.9182 29.7623C42.5929 29.7623 42.2987 29.8381 42.0358 29.9896C41.7773 30.1367 41.5723 30.3506 41.4207 30.6314C41.2736 30.9077 41.2001 31.2286 41.2001 31.5941C41.2001 31.9596 41.2736 32.2805 41.4207 32.5568C41.5723 32.8331 41.7773 33.047 42.0358 33.1986C42.2987 33.3457 42.5929 33.4192 42.9182 33.4192C43.3728 33.4192 43.7472 33.2833 44.0414 33.0114C44.3355 32.7395 44.5071 32.3718 44.5562 31.9083H42.6976V31.4136H45.2046V31.8816C45.169 32.2649 45.0486 32.617 44.8436 32.9379C44.6386 33.2543 44.369 33.5061 44.0347 33.6933C43.7004 33.876 43.3283 33.9674 42.9182 33.9674C42.4859 33.9674 42.0915 33.8671 41.7349 33.6666C41.3784 33.4615 41.0954 33.1785 40.8859 32.8175C40.6809 32.4565 40.5784 32.0487 40.5784 31.5941C40.5784 31.1395 40.6809 30.7317 40.8859 30.3707C41.0954 30.0052 41.3784 29.7222 41.7349 29.5216C42.0915 29.3166 42.4859 29.2141 42.9182 29.2141C43.413 29.2141 43.8497 29.3367 44.2286 29.5818C44.6119 29.8269 44.8904 30.1723 45.0642 30.618H44.3355Z" fill="black"/>
</svg>
